<svg width="178" height="146" viewBox="0 0 178 146" fill="none" xmlns="http://www.w3.org/2000/svg">
<path d="M42.9551 81H26.4512V28.4609L10.2402 33.1973V20.6973L41.4414 9.90625H42.9551V81ZM113.756 51.9473C113.756 61.5501 111.591 68.9557 107.262 74.1641C102.965 79.3724 96.8939 81.9766 89.0488 81.9766C81.1387 81.9766 75.0189 79.3561 70.6895 74.1152C66.36 68.8743 64.1953 61.485 64.1953 51.9473V38.959C64.1953 29.3561 66.3438 21.9505 70.6406 16.7422C74.9701 11.5339 81.0736 8.92969 88.9512 8.92969C96.8288 8.92969 102.932 11.5501 107.262 16.791C111.591 22.0319 113.756 29.4375 113.756 39.0078V51.9473ZM97.3008 36.8594C97.3008 31.7487 96.6335 27.9401 95.2988 25.4336C93.9642 22.8945 91.8483 21.625 88.9512 21.625C86.1191 21.625 84.0521 22.7969 82.75 25.1406C81.4805 27.4844 80.7969 31.0326 80.6992 35.7852V53.9492C80.6992 59.2552 81.3665 63.1452 82.7012 65.6191C84.0358 68.0605 86.1517 69.2812 89.0488 69.2812C91.8483 69.2812 93.9154 68.0931 95.25 65.7168C96.5846 63.3079 97.2682 59.5482 97.3008 54.4375V36.8594ZM171.666 51.9473C171.666 61.5501 169.501 68.9557 165.172 74.1641C160.875 79.3724 154.804 81.9766 146.959 81.9766C139.049 81.9766 132.929 79.3561 128.6 74.1152C124.27 68.8743 122.105 61.485 122.105 51.9473V38.959C122.105 29.3561 124.254 21.9505 128.551 16.7422C132.88 11.5339 138.984 8.92969 146.861 8.92969C154.739 8.92969 160.842 11.5501 165.172 16.791C169.501 22.0319 171.666 29.4375 171.666 39.0078V51.9473ZM155.211 36.8594C155.211 31.7487 154.544 27.9401 153.209 25.4336C151.874 22.8945 149.758 21.625 146.861 21.625C144.029 21.625 141.962 22.7969 140.66 25.1406C139.391 27.4844 138.707 31.0326 138.609 35.7852V53.9492C138.609 59.2552 139.277 63.1452 140.611 65.6191C141.946 68.0605 144.062 69.2812 146.959 69.2812C149.758 69.2812 151.826 68.0931 153.16 65.7168C154.495 63.3079 155.178 59.5482 155.211 54.4375V36.8594ZM11.5821 143H9.88578V137.085H3.43461V143H1.74711V130.203H3.43461V135.705H9.88578V130.203H11.5821V143ZM22.5237 139.66H17.1624L15.9583 143H14.2181L19.1048 130.203H20.5814L25.4769 143H23.7454L22.5237 139.66ZM17.6722 138.271H22.0228L19.8431 132.286L17.6722 138.271ZM29.607 137.99V143H27.9195V130.203H32.6393C34.0396 130.203 35.1354 130.561 35.9264 131.275C36.7232 131.99 37.1217 132.937 37.1217 134.114C37.1217 135.356 36.732 136.314 35.9527 136.988C35.1793 137.656 34.0689 137.99 32.6217 137.99H29.607ZM29.607 136.61H32.6393C33.5416 136.61 34.233 136.399 34.7135 135.978C35.1939 135.55 35.4342 134.935 35.4342 134.132C35.4342 133.37 35.1939 132.761 34.7135 132.304C34.233 131.847 33.5738 131.609 32.7359 131.592H29.607V136.61ZM41.6825 137.99V143H39.995V130.203H44.7147C46.1151 130.203 47.2108 130.561 48.0018 131.275C48.7987 131.99 49.1971 132.937 49.1971 134.114C49.1971 135.356 48.8075 136.314 48.0282 136.988C47.2548 137.656 46.1444 137.99 44.6971 137.99H41.6825ZM41.6825 136.61H44.7147C45.6171 136.61 46.3085 136.399 46.7889 135.978C47.2694 135.55 47.5096 134.935 47.5096 134.132C47.5096 133.37 47.2694 132.761 46.7889 132.304C46.3085 131.847 45.6493 131.609 44.8114 131.592H41.6825V136.61ZM55.9728 136.628L59.3127 130.203H61.2287L56.8166 138.228V143H55.1291V138.228L50.717 130.203H52.6505L55.9728 136.628ZM78.1989 138.939C78.0407 140.293 77.5398 141.339 76.696 142.077C75.8581 142.81 74.7419 143.176 73.3474 143.176C71.8357 143.176 70.6228 142.634 69.7087 141.55C68.8005 140.466 68.3464 139.016 68.3464 137.199V135.969C68.3464 134.779 68.5573 133.733 68.9792 132.831C69.407 131.929 70.0105 131.237 70.7898 130.757C71.5691 130.271 72.4714 130.027 73.4968 130.027C74.8562 130.027 75.946 130.408 76.7663 131.17C77.5866 131.926 78.0642 132.975 78.1989 134.316H76.5027C76.3562 133.297 76.0368 132.559 75.5446 132.102C75.0583 131.645 74.3757 131.416 73.4968 131.416C72.4187 131.416 71.572 131.814 70.9568 132.611C70.3474 133.408 70.0427 134.542 70.0427 136.013V137.252C70.0427 138.641 70.3327 139.745 70.9128 140.565C71.4929 141.386 72.3044 141.796 73.3474 141.796C74.2849 141.796 75.0027 141.585 75.5007 141.163C76.0046 140.735 76.3386 139.994 76.5027 138.939H78.1989ZM90.2393 130.203V138.904C90.2334 140.111 89.8525 141.099 89.0967 141.866C88.3467 142.634 87.3271 143.064 86.0381 143.158L85.5898 143.176C84.1895 143.176 83.0732 142.798 82.2412 142.042C81.4092 141.286 80.9873 140.246 80.9756 138.922V130.203H82.6455V138.869C82.6455 139.795 82.9004 140.516 83.4102 141.031C83.9199 141.541 84.6465 141.796 85.5898 141.796C86.5449 141.796 87.2744 141.541 87.7783 141.031C88.2881 140.521 88.543 139.804 88.543 138.878V130.203H90.2393ZM97.3929 137.296C95.9456 136.88 94.8909 136.37 94.2288 135.767C93.5725 135.157 93.2444 134.407 93.2444 133.517C93.2444 132.509 93.6458 131.677 94.4485 131.021C95.2571 130.358 96.3059 130.027 97.595 130.027C98.4739 130.027 99.2561 130.197 99.9417 130.537C100.633 130.877 101.166 131.346 101.541 131.943C101.922 132.541 102.113 133.194 102.113 133.903H100.416C100.416 133.13 100.17 132.523 99.678 132.084C99.1858 131.639 98.4915 131.416 97.595 131.416C96.763 131.416 96.1126 131.601 95.6438 131.97C95.1809 132.333 94.9495 132.84 94.9495 133.49C94.9495 134.012 95.1692 134.454 95.6087 134.817C96.054 135.175 96.8069 135.503 97.8675 135.802C98.9339 136.101 99.7659 136.432 100.364 136.795C100.967 137.152 101.412 137.571 101.699 138.052C101.992 138.532 102.139 139.098 102.139 139.748C102.139 140.785 101.735 141.617 100.926 142.244C100.117 142.865 99.0364 143.176 97.6829 143.176C96.804 143.176 95.9837 143.009 95.222 142.675C94.4602 142.335 93.8714 141.872 93.4554 141.286C93.0452 140.7 92.8401 140.035 92.8401 139.291H94.5364C94.5364 140.064 94.8206 140.677 95.3889 141.128C95.9632 141.573 96.7278 141.796 97.6829 141.796C98.5735 141.796 99.2561 141.614 99.7307 141.251C100.205 140.888 100.443 140.393 100.443 139.766C100.443 139.139 100.223 138.655 99.7835 138.315C99.344 137.97 98.5471 137.63 97.3929 137.296ZM113.872 131.592H109.758V143H108.08V131.592H103.975V130.203H113.872V131.592ZM126.088 137.015C126.088 138.269 125.877 139.364 125.455 140.302C125.033 141.233 124.435 141.945 123.662 142.438C122.889 142.93 121.986 143.176 120.955 143.176C119.947 143.176 119.054 142.93 118.274 142.438C117.495 141.939 116.889 141.233 116.455 140.319C116.027 139.399 115.807 138.336 115.796 137.129V136.206C115.796 134.976 116.01 133.889 116.437 132.945C116.865 132.002 117.469 131.281 118.248 130.783C119.033 130.279 119.93 130.027 120.937 130.027C121.963 130.027 122.865 130.276 123.644 130.774C124.43 131.267 125.033 131.984 125.455 132.928C125.877 133.865 126.088 134.958 126.088 136.206V137.015ZM124.409 136.188C124.409 134.671 124.104 133.508 123.495 132.699C122.886 131.885 122.033 131.478 120.937 131.478C119.871 131.478 119.03 131.885 118.415 132.699C117.806 133.508 117.492 134.633 117.474 136.074V137.015C117.474 138.485 117.782 139.643 118.397 140.486C119.018 141.324 119.871 141.743 120.955 141.743C122.045 141.743 122.889 141.348 123.486 140.557C124.084 139.76 124.391 138.62 124.409 137.138V136.188ZM131.519 130.203L135.702 140.645L139.886 130.203H142.074V143H140.387V138.017L140.545 132.638L136.344 143H135.052L130.859 132.664L131.026 138.017V143H129.339V130.203H131.519ZM153.007 137.085H147.461V141.62H153.904V143H145.774V130.203H153.816V131.592H147.461V135.705H153.007V137.085ZM161.418 137.823H158.412V143H156.716V130.203H160.952C162.393 130.203 163.501 130.531 164.274 131.188C165.053 131.844 165.443 132.799 165.443 134.053C165.443 134.85 165.226 135.544 164.793 136.136C164.365 136.728 163.767 137.17 163 137.463L166.006 142.895V143H164.195L161.418 137.823ZM158.412 136.443H161.005C161.842 136.443 162.508 136.227 163 135.793C163.498 135.359 163.747 134.779 163.747 134.053C163.747 133.262 163.509 132.655 163.035 132.233C162.566 131.812 161.886 131.598 160.996 131.592H158.412V136.443ZM172.307 137.296C170.859 136.88 169.805 136.37 169.143 135.767C168.486 135.157 168.158 134.407 168.158 133.517C168.158 132.509 168.56 131.677 169.362 131.021C170.171 130.358 171.22 130.027 172.509 130.027C173.388 130.027 174.17 130.197 174.855 130.537C175.547 130.877 176.08 131.346 176.455 131.943C176.836 132.541 177.026 133.194 177.026 133.903H175.33C175.33 133.13 175.084 132.523 174.592 132.084C174.1 131.639 173.405 131.416 172.509 131.416C171.677 131.416 171.026 131.601 170.558 131.97C170.095 132.333 169.863 132.84 169.863 133.49C169.863 134.012 170.083 134.454 170.522 134.817C170.968 135.175 171.721 135.503 172.781 135.802C173.848 136.101 174.68 136.432 175.277 136.795C175.881 137.152 176.326 137.571 176.613 138.052C176.906 138.532 177.053 139.098 177.053 139.748C177.053 140.785 176.648 141.617 175.84 142.244C175.031 142.865 173.95 143.176 172.597 143.176C171.718 143.176 170.897 143.009 170.136 142.675C169.374 142.335 168.785 141.872 168.369 141.286C167.959 140.7 167.754 140.035 167.754 139.291H169.45C169.45 140.064 169.734 140.677 170.303 141.128C170.877 141.573 171.642 141.796 172.597 141.796C173.487 141.796 174.17 141.614 174.645 141.251C175.119 140.888 175.356 140.393 175.356 139.766C175.356 139.139 175.137 138.655 174.697 138.315C174.258 137.97 173.461 137.63 172.307 137.296Z" fill="black"/>
</svg>
