<svg width="174" height="146" viewBox="0 0 174 146" fill="none" xmlns="http://www.w3.org/2000/svg">
<path d="M40.9551 81H24.4512V28.4609L8.24023 33.1973V20.6973L39.4414 9.90625H40.9551V81ZM111.756 51.9473C111.756 61.5501 109.591 68.9557 105.262 74.1641C100.965 79.3724 94.8939 81.9766 87.0488 81.9766C79.1387 81.9766 73.0189 79.3561 68.6895 74.1152C64.36 68.8743 62.1953 61.485 62.1953 51.9473V38.959C62.1953 29.3561 64.3438 21.9505 68.6406 16.7422C72.9701 11.5339 79.0736 8.92969 86.9512 8.92969C94.8288 8.92969 100.932 11.5501 105.262 16.791C109.591 22.0319 111.756 29.4375 111.756 39.0078V51.9473ZM95.3008 36.8594C95.3008 31.7487 94.6335 27.9401 93.2988 25.4336C91.9642 22.8945 89.8483 21.625 86.9512 21.625C84.1191 21.625 82.0521 22.7969 80.75 25.1406C79.4805 27.4844 78.7969 31.0326 78.6992 35.7852V53.9492C78.6992 59.2552 79.3665 63.1452 80.7012 65.6191C82.0358 68.0605 84.1517 69.2812 87.0488 69.2812C89.8483 69.2812 91.9154 68.0931 93.25 65.7168C94.5846 63.3079 95.2682 59.5482 95.3008 54.4375V36.8594ZM169.666 51.9473C169.666 61.5501 167.501 68.9557 163.172 74.1641C158.875 79.3724 152.804 81.9766 144.959 81.9766C137.049 81.9766 130.929 79.3561 126.6 74.1152C122.27 68.8743 120.105 61.485 120.105 51.9473V38.959C120.105 29.3561 122.254 21.9505 126.551 16.7422C130.88 11.5339 136.984 8.92969 144.861 8.92969C152.739 8.92969 158.842 11.5501 163.172 16.791C167.501 22.0319 169.666 29.4375 169.666 39.0078V51.9473ZM153.211 36.8594C153.211 31.7487 152.544 27.9401 151.209 25.4336C149.874 22.8945 147.758 21.625 144.861 21.625C142.029 21.625 139.962 22.7969 138.66 25.1406C137.391 27.4844 136.707 31.0326 136.609 35.7852V53.9492C136.609 59.2552 137.277 63.1452 138.611 65.6191C139.946 68.0605 142.062 69.2812 144.959 69.2812C147.758 69.2812 149.826 68.0931 151.16 65.7168C152.495 63.3079 153.178 59.5482 153.211 54.4375V36.8594ZM14.9954 138.966L15.2415 140.653L15.6019 139.133L18.1331 130.203H19.557L22.0267 139.133L22.3782 140.68L22.6507 138.957L24.637 130.203H26.3333L23.2308 143H21.6927L19.056 133.675L18.8538 132.699L18.6517 133.675L15.9183 143H14.3802L11.2864 130.203H12.9739L14.9954 138.966ZM38.7779 137.015C38.7779 138.269 38.567 139.364 38.1451 140.302C37.7232 141.233 37.1256 141.945 36.3521 142.438C35.5787 142.93 34.6764 143.176 33.6451 143.176C32.6373 143.176 31.7437 142.93 30.9645 142.438C30.1852 141.939 29.5787 141.233 29.1451 140.319C28.7174 139.399 28.4977 138.336 28.4859 137.129V136.206C28.4859 134.976 28.6998 133.889 29.1275 132.945C29.5553 132.002 30.1588 131.281 30.9381 130.783C31.7232 130.279 32.6197 130.027 33.6275 130.027C34.6529 130.027 35.5553 130.276 36.3346 130.774C37.1197 131.267 37.7232 131.984 38.1451 132.928C38.567 133.865 38.7779 134.958 38.7779 136.206V137.015ZM37.0992 136.188C37.0992 134.671 36.7945 133.508 36.1852 132.699C35.5758 131.885 34.7232 131.478 33.6275 131.478C32.5611 131.478 31.7203 131.885 31.1051 132.699C30.4957 133.508 30.1822 134.633 30.1646 136.074V137.015C30.1646 138.485 30.4723 139.643 31.0875 140.486C31.7086 141.324 32.5611 141.743 33.6451 141.743C34.735 141.743 35.5787 141.348 36.1764 140.557C36.774 139.76 37.0816 138.62 37.0992 137.138V136.188ZM46.7225 137.823H43.7167V143H42.0204V130.203H46.2567C47.6981 130.203 48.8055 130.531 49.579 131.188C50.3583 131.844 50.7479 132.799 50.7479 134.053C50.7479 134.85 50.5311 135.544 50.0975 136.136C49.6698 136.728 49.0722 137.17 48.3046 137.463L51.3104 142.895V143H49.4999L46.7225 137.823ZM43.7167 136.443H46.3095C47.1473 136.443 47.8124 136.227 48.3046 135.793C48.8026 135.359 49.0516 134.779 49.0516 134.053C49.0516 133.262 48.8143 132.655 48.3397 132.233C47.871 131.812 47.1913 131.598 46.3007 131.592H43.7167V136.443ZM57.0929 137.05L55.5285 138.676V143H53.841V130.203H55.5285V136.531L61.215 130.203H63.2541L58.2179 135.854L63.6496 143H61.6281L57.0929 137.05ZM67.6567 143H65.9692V130.203H67.6567V143ZM81.3054 143H79.6091L73.1667 133.139V143H71.4704V130.203H73.1667L79.6267 140.108V130.203H81.3054V143ZM94.4707 141.321C94.0371 141.942 93.4307 142.408 92.6514 142.719C91.8779 143.023 90.9756 143.176 89.9443 143.176C88.9014 143.176 87.9756 142.933 87.167 142.446C86.3584 141.954 85.7314 141.257 85.2861 140.354C84.8467 139.452 84.6211 138.406 84.6094 137.217V136.101C84.6094 134.173 85.0576 132.679 85.9541 131.618C86.8564 130.558 88.1221 130.027 89.751 130.027C91.0869 130.027 92.1621 130.37 92.9766 131.056C93.791 131.735 94.2891 132.702 94.4707 133.956H92.7832C92.4668 132.263 91.459 131.416 89.7598 131.416C88.6289 131.416 87.7705 131.814 87.1846 132.611C86.6045 133.402 86.3115 134.551 86.3057 136.057V137.103C86.3057 138.538 86.6338 139.681 87.29 140.53C87.9463 141.374 88.834 141.796 89.9531 141.796C90.5859 141.796 91.1396 141.726 91.6143 141.585C92.0889 141.444 92.4814 141.207 92.792 140.873V137.999H89.8301V136.628H94.4707V141.321ZM113.032 143H111.336V137.085H104.884V143H103.197V130.203H104.884V135.705H111.336V130.203H113.032V143ZM126.593 137.015C126.593 138.269 126.382 139.364 125.96 140.302C125.538 141.233 124.94 141.945 124.167 142.438C123.393 142.93 122.491 143.176 121.46 143.176C120.452 143.176 119.558 142.93 118.779 142.438C118 141.939 117.393 141.233 116.96 140.319C116.532 139.399 116.312 138.336 116.301 137.129V136.206C116.301 134.976 116.514 133.889 116.942 132.945C117.37 132.002 117.973 131.281 118.753 130.783C119.538 130.279 120.434 130.027 121.442 130.027C122.468 130.027 123.37 130.276 124.149 130.774C124.934 131.267 125.538 131.984 125.96 132.928C126.382 133.865 126.593 134.958 126.593 136.206V137.015ZM124.914 136.188C124.914 134.671 124.609 133.508 124 132.699C123.39 131.885 122.538 131.478 121.442 131.478C120.376 131.478 119.535 131.885 118.92 132.699C118.31 133.508 117.997 134.633 117.979 136.074V137.015C117.979 138.485 118.287 139.643 118.902 140.486C119.523 141.324 120.376 141.743 121.46 141.743C122.55 141.743 123.393 141.348 123.991 140.557C124.589 139.76 124.896 138.62 124.914 137.138V136.188ZM138.853 130.203V138.904C138.847 140.111 138.466 141.099 137.71 141.866C136.96 142.634 135.941 143.064 134.651 143.158L134.203 143.176C132.803 143.176 131.687 142.798 130.855 142.042C130.023 141.286 129.601 140.246 129.589 138.922V130.203H131.259V138.869C131.259 139.795 131.514 140.516 132.024 141.031C132.533 141.541 133.26 141.796 134.203 141.796C135.158 141.796 135.888 141.541 136.392 141.031C136.901 140.521 137.156 139.804 137.156 138.878V130.203H138.853ZM146.929 137.823H143.923V143H142.227V130.203H146.463C147.905 130.203 149.012 130.531 149.786 131.188C150.565 131.844 150.954 132.799 150.954 134.053C150.954 134.85 150.738 135.544 150.304 136.136C149.876 136.728 149.279 137.17 148.511 137.463L151.517 142.895V143H149.706L146.929 137.823ZM143.923 136.443H146.516C147.354 136.443 148.019 136.227 148.511 135.793C149.009 135.359 149.258 134.779 149.258 134.053C149.258 133.262 149.021 132.655 148.546 132.233C148.078 131.812 147.398 131.598 146.507 131.592H143.923V136.443ZM157.818 137.296C156.371 136.88 155.316 136.37 154.654 135.767C153.998 135.157 153.67 134.407 153.67 133.517C153.67 132.509 154.071 131.677 154.874 131.021C155.682 130.358 156.731 130.027 158.02 130.027C158.899 130.027 159.681 130.197 160.367 130.537C161.058 130.877 161.591 131.346 161.966 131.943C162.347 132.541 162.538 133.194 162.538 133.903H160.841C160.841 133.13 160.595 132.523 160.103 132.084C159.611 131.639 158.917 131.416 158.02 131.416C157.188 131.416 156.538 131.601 156.069 131.97C155.606 132.333 155.375 132.84 155.375 133.49C155.375 134.012 155.594 134.454 156.034 134.817C156.479 135.175 157.232 135.503 158.293 135.802C159.359 136.101 160.191 136.432 160.789 136.795C161.392 137.152 161.838 137.571 162.125 138.052C162.418 138.532 162.564 139.098 162.564 139.748C162.564 140.785 162.16 141.617 161.351 142.244C160.543 142.865 159.462 143.176 158.108 143.176C157.229 143.176 156.409 143.009 155.647 142.675C154.885 142.335 154.297 141.872 153.881 141.286C153.47 140.7 153.265 140.035 153.265 139.291H154.962C154.962 140.064 155.246 140.677 155.814 141.128C156.388 141.573 157.153 141.796 158.108 141.796C158.999 141.796 159.681 141.614 160.156 141.251C160.631 140.888 160.868 140.393 160.868 139.766C160.868 139.139 160.648 138.655 160.209 138.315C159.769 137.97 158.972 137.63 157.818 137.296Z" fill="black"/>
</svg>
