<svg width="305" height="144" viewBox="0 0 305 144" fill="none" xmlns="http://www.w3.org/2000/svg">
<path fill-rule="evenodd" clip-rule="evenodd" d="M263 0H0V144H262.5H263L305 144L263 101.859V0Z" fill="#F7C949"/>
<path d="M97.1348 57.1973C97.1348 56.2949 96.8125 55.5918 96.168 55.0879C95.5352 54.584 94.416 54.0625 92.8105 53.5234C91.2051 52.9844 89.8926 52.4629 88.873 51.959C85.5566 50.3301 83.8984 48.0918 83.8984 45.2441C83.8984 43.8262 84.3086 42.5781 85.1289 41.5C85.9609 40.4102 87.1328 39.5664 88.6445 38.9688C90.1562 38.3594 91.8555 38.0547 93.7422 38.0547C95.582 38.0547 97.2285 38.3828 98.6816 39.0391C100.146 39.6953 101.283 40.6328 102.092 41.8516C102.9 43.0586 103.305 44.4414 103.305 46H97.1523C97.1523 44.957 96.8301 44.1484 96.1855 43.5742C95.5527 43 94.6914 42.7129 93.6016 42.7129C92.5 42.7129 91.627 42.959 90.9824 43.4512C90.3496 43.9316 90.0332 44.5469 90.0332 45.2969C90.0332 45.9531 90.3848 46.5508 91.0879 47.0898C91.791 47.6172 93.0273 48.168 94.7969 48.7422C96.5664 49.3047 98.0195 49.9141 99.1562 50.5703C101.922 52.1641 103.305 54.3613 103.305 57.1621C103.305 59.4004 102.461 61.1582 100.773 62.4355C99.0859 63.7129 96.7715 64.3516 93.8301 64.3516C91.7559 64.3516 89.875 63.9824 88.1875 63.2441C86.5117 62.4941 85.2461 61.4746 84.3906 60.1855C83.5469 58.8848 83.125 57.3906 83.125 55.7031H89.3125C89.3125 57.0742 89.6641 58.0879 90.3672 58.7441C91.082 59.3887 92.2363 59.7109 93.8301 59.7109C94.8496 59.7109 95.6523 59.4941 96.2383 59.0605C96.8359 58.6152 97.1348 57.9941 97.1348 57.1973ZM128.143 51.7305C128.143 54.2266 127.68 56.4355 126.754 58.3574C125.828 60.2793 124.51 61.7617 122.799 62.8047C121.1 63.8359 119.16 64.3516 116.98 64.3516C114.801 64.3516 112.867 63.8535 111.18 62.8574C109.492 61.8496 108.174 60.4141 107.225 58.5508C106.287 56.6875 105.795 54.5488 105.748 52.1348V50.6934C105.748 48.1855 106.205 45.9766 107.119 44.0664C108.045 42.1445 109.363 40.6621 111.074 39.6191C112.797 38.5762 114.754 38.0547 116.945 38.0547C119.113 38.0547 121.047 38.5703 122.746 39.6016C124.445 40.6328 125.764 42.1035 126.701 44.0137C127.65 45.9121 128.131 48.0918 128.143 50.5527V51.7305ZM121.867 50.6582C121.867 48.1152 121.439 46.1875 120.584 44.875C119.74 43.5508 118.527 42.8887 116.945 42.8887C113.852 42.8887 112.217 45.209 112.041 49.8496L112.023 51.7305C112.023 54.2383 112.439 56.166 113.271 57.5137C114.104 58.8613 115.34 59.5352 116.98 59.5352C118.539 59.5352 119.74 58.873 120.584 57.5488C121.428 56.2246 121.855 54.3203 121.867 51.8359V50.6582ZM139.428 38.4062L145.141 56.2129L150.836 38.4062H158.957V64H152.77V58.0234L153.367 45.7891L147.18 64H143.102L136.896 45.7715L137.494 58.0234V64H131.324V38.4062H139.428ZM178.768 53.1543H169.064V59.2539H180.525V64H162.895V38.4062H180.561V43.1699H169.064V48.5664H178.768V53.1543ZM100.053 93.8047H90.1035V104H83.9336V78.4062H101.055V83.1699H90.1035V89.0586H100.053V93.8047ZM114.783 99.2188H106.328L104.852 104H98.2598L107.646 78.4062H113.447L122.904 104H116.277L114.783 99.2188ZM107.805 94.4551H113.307L110.547 85.5781L107.805 94.4551ZM145.105 95.334C145.023 97.1152 144.543 98.6914 143.664 100.062C142.785 101.422 141.549 102.477 139.955 103.227C138.373 103.977 136.562 104.352 134.523 104.352C131.16 104.352 128.512 103.256 126.578 101.064C124.645 98.873 123.678 95.7793 123.678 91.7832V90.5176C123.678 88.0098 124.111 85.8184 124.979 83.9434C125.857 82.0566 127.117 80.6035 128.758 79.584C130.398 78.5527 132.297 78.0371 134.453 78.0371C137.559 78.0371 140.055 78.8574 141.941 80.498C143.828 82.127 144.9 84.377 145.158 87.248H139.006C138.959 85.6895 138.566 84.5703 137.828 83.8906C137.09 83.2109 135.965 82.8711 134.453 82.8711C132.918 82.8711 131.793 83.4453 131.078 84.5938C130.363 85.7422 129.988 87.5762 129.953 90.0957V91.9062C129.953 94.6367 130.293 96.5879 130.973 97.7598C131.664 98.9316 132.848 99.5176 134.523 99.5176C135.941 99.5176 137.025 99.1836 137.775 98.5156C138.525 97.8477 138.924 96.7871 138.971 95.334H145.105ZM167.588 83.1699H159.906V104H153.736V83.1699H146.195V78.4062H167.588V83.1699ZM183.127 97.1973C183.127 96.2949 182.805 95.5918 182.16 95.0879C181.527 94.584 180.408 94.0625 178.803 93.5234C177.197 92.9844 175.885 92.4629 174.865 91.959C171.549 90.3301 169.891 88.0918 169.891 85.2441C169.891 83.8262 170.301 82.5781 171.121 81.5C171.953 80.4102 173.125 79.5664 174.637 78.9688C176.148 78.3594 177.848 78.0547 179.734 78.0547C181.574 78.0547 183.221 78.3828 184.674 79.0391C186.139 79.6953 187.275 80.6328 188.084 81.8516C188.893 83.0586 189.297 84.4414 189.297 86H183.145C183.145 84.957 182.822 84.1484 182.178 83.5742C181.545 83 180.684 82.7129 179.594 82.7129C178.492 82.7129 177.619 82.959 176.975 83.4512C176.342 83.9316 176.025 84.5469 176.025 85.2969C176.025 85.9531 176.377 86.5508 177.08 87.0898C177.783 87.6172 179.02 88.168 180.789 88.7422C182.559 89.3047 184.012 89.9141 185.148 90.5703C187.914 92.1641 189.297 94.3613 189.297 97.1621C189.297 99.4004 188.453 101.158 186.766 102.436C185.078 103.713 182.764 104.352 179.822 104.352C177.748 104.352 175.867 103.982 174.18 103.244C172.504 102.494 171.238 101.475 170.383 100.186C169.539 98.8848 169.117 97.3906 169.117 95.7031H175.305C175.305 97.0742 175.656 98.0879 176.359 98.7441C177.074 99.3887 178.229 99.7109 179.822 99.7109C180.842 99.7109 181.645 99.4941 182.23 99.0605C182.828 98.6152 183.127 97.9941 183.127 97.1973Z" fill="black"/>
</svg>
