<svg width="298" height="265" viewBox="0 0 298 265" fill="none" xmlns="http://www.w3.org/2000/svg">
<path d="M128.688 39.3906C128.547 40.5938 128.102 41.5234 127.352 42.1797C126.607 42.8307 125.615 43.1562 124.375 43.1562C123.031 43.1562 121.953 42.6745 121.141 41.7109C120.333 40.7474 119.93 39.4583 119.93 37.8438V36.75C119.93 35.6927 120.117 34.763 120.492 33.9609C120.872 33.1589 121.409 32.5443 122.102 32.1172C122.794 31.6849 123.596 31.4688 124.508 31.4688C125.716 31.4688 126.685 31.8073 127.414 32.4844C128.143 33.1562 128.568 34.0885 128.688 35.2812H127.18C127.049 34.375 126.766 33.7188 126.328 33.3125C125.896 32.9062 125.289 32.7031 124.508 32.7031C123.549 32.7031 122.797 33.0573 122.25 33.7656C121.708 34.474 121.438 35.4818 121.438 36.7891V37.8906C121.438 39.125 121.695 40.1068 122.211 40.8359C122.727 41.5651 123.448 41.9297 124.375 41.9297C125.208 41.9297 125.846 41.7422 126.289 41.3672C126.737 40.987 127.034 40.3281 127.18 39.3906H128.688ZM130.133 38.6953C130.133 37.8672 130.294 37.1224 130.617 36.4609C130.945 35.7995 131.398 35.2891 131.977 34.9297C132.56 34.5703 133.224 34.3906 133.969 34.3906C135.12 34.3906 136.049 34.7891 136.758 35.5859C137.471 36.3828 137.828 37.4427 137.828 38.7656V38.8672C137.828 39.6901 137.669 40.4297 137.352 41.0859C137.039 41.737 136.589 42.2448 136 42.6094C135.417 42.974 134.745 43.1562 133.984 43.1562C132.839 43.1562 131.909 42.7578 131.195 41.9609C130.487 41.1641 130.133 40.1094 130.133 38.7969V38.6953ZM131.586 38.8672C131.586 39.8047 131.802 40.5573 132.234 41.125C132.672 41.6927 133.255 41.9766 133.984 41.9766C134.719 41.9766 135.302 41.6901 135.734 41.1172C136.167 40.5391 136.383 39.7318 136.383 38.6953C136.383 37.7682 136.161 37.0182 135.719 36.4453C135.281 35.8672 134.698 35.5781 133.969 35.5781C133.255 35.5781 132.68 35.862 132.242 36.4297C131.805 36.9974 131.586 37.8099 131.586 38.8672ZM141.008 34.5469L141.055 35.6094C141.701 34.7969 142.544 34.3906 143.586 34.3906C145.372 34.3906 146.273 35.3984 146.289 37.4141V43H144.844V37.4062C144.839 36.7969 144.698 36.3464 144.422 36.0547C144.151 35.763 143.727 35.6172 143.148 35.6172C142.68 35.6172 142.268 35.7422 141.914 35.9922C141.56 36.2422 141.284 36.5703 141.086 36.9766V43H139.641V34.5469H141.008ZM151.859 41.9766C152.375 41.9766 152.826 41.8203 153.211 41.5078C153.596 41.1953 153.81 40.8047 153.852 40.3359H155.219C155.193 40.8203 155.026 41.2812 154.719 41.7188C154.411 42.1562 154 42.5052 153.484 42.7656C152.974 43.026 152.432 43.1562 151.859 43.1562C150.708 43.1562 149.792 42.7734 149.109 42.0078C148.432 41.237 148.094 40.1849 148.094 38.8516V38.6094C148.094 37.7865 148.245 37.0547 148.547 36.4141C148.849 35.7734 149.281 35.276 149.844 34.9219C150.411 34.5677 151.081 34.3906 151.852 34.3906C152.799 34.3906 153.586 34.6745 154.211 35.2422C154.841 35.8099 155.177 36.5469 155.219 37.4531H153.852C153.81 36.9062 153.602 36.4583 153.227 36.1094C152.857 35.7552 152.398 35.5781 151.852 35.5781C151.117 35.5781 150.547 35.8438 150.141 36.375C149.74 36.901 149.539 37.6641 149.539 38.6641V38.9375C149.539 39.9115 149.74 40.6615 150.141 41.1875C150.542 41.7135 151.115 41.9766 151.859 41.9766ZM160.352 43.1562C159.206 43.1562 158.273 42.7812 157.555 42.0312C156.836 41.276 156.477 40.2682 156.477 39.0078V38.7422C156.477 37.9036 156.635 37.1562 156.953 36.5C157.276 35.8385 157.724 35.3229 158.297 34.9531C158.875 34.5781 159.5 34.3906 160.172 34.3906C161.271 34.3906 162.125 34.7526 162.734 35.4766C163.344 36.2005 163.648 37.237 163.648 38.5859V39.1875H157.922C157.943 40.0208 158.185 40.6953 158.648 41.2109C159.117 41.7214 159.711 41.9766 160.43 41.9766C160.94 41.9766 161.372 41.8724 161.727 41.6641C162.081 41.4557 162.391 41.1797 162.656 40.8359L163.539 41.5234C162.831 42.612 161.768 43.1562 160.352 43.1562ZM160.172 35.5781C159.589 35.5781 159.099 35.7917 158.703 36.2188C158.307 36.6406 158.062 37.2344 157.969 38H162.203V37.8906C162.161 37.1562 161.964 36.5885 161.609 36.1875C161.255 35.7812 160.776 35.5781 160.172 35.5781ZM172.469 38.8672C172.469 40.1536 172.174 41.1901 171.586 41.9766C170.997 42.763 170.201 43.1562 169.195 43.1562C168.169 43.1562 167.362 42.8307 166.773 42.1797V46.25H165.328V34.5469H166.648L166.719 35.4844C167.307 34.7552 168.125 34.3906 169.172 34.3906C170.188 34.3906 170.99 34.7734 171.578 35.5391C172.172 36.3047 172.469 37.3698 172.469 38.7344V38.8672ZM171.023 38.7031C171.023 37.75 170.82 36.9974 170.414 36.4453C170.008 35.8932 169.451 35.6172 168.742 35.6172C167.867 35.6172 167.211 36.0052 166.773 36.7812V40.8203C167.206 41.5911 167.867 41.9766 168.758 41.9766C169.451 41.9766 170 41.7031 170.406 41.1562C170.818 40.6042 171.023 39.7865 171.023 38.7031ZM176.273 32.5V34.5469H177.852V35.6641H176.273V40.9062C176.273 41.2448 176.344 41.5 176.484 41.6719C176.625 41.8385 176.865 41.9219 177.203 41.9219C177.37 41.9219 177.599 41.8906 177.891 41.8281V43C177.51 43.1042 177.141 43.1562 176.781 43.1562C176.135 43.1562 175.648 42.9609 175.32 42.5703C174.992 42.1797 174.828 41.625 174.828 40.9062V35.6641H173.289V34.5469H174.828V32.5H176.273Z" fill="black"/>
<path d="M126.32 88V76.625H129.531C130.521 76.625 131.396 76.8438 132.156 77.2812C132.917 77.7188 133.503 78.3411 133.914 79.1484C134.331 79.9557 134.542 80.8828 134.547 81.9297V82.6562C134.547 83.7292 134.339 84.6693 133.922 85.4766C133.51 86.2839 132.919 86.9036 132.148 87.3359C131.383 87.7682 130.49 87.9896 129.469 88H126.32ZM127.82 77.8594V86.7734H129.398C130.555 86.7734 131.453 86.4141 132.094 85.6953C132.74 84.9766 133.062 83.9531 133.062 82.625V81.9609C133.062 80.6693 132.758 79.6667 132.148 78.9531C131.544 78.2344 130.685 77.8698 129.57 77.8594H127.82ZM140.102 88.1562C138.956 88.1562 138.023 87.7812 137.305 87.0312C136.586 86.276 136.227 85.2682 136.227 84.0078V83.7422C136.227 82.9036 136.385 82.1562 136.703 81.5C137.026 80.8385 137.474 80.3229 138.047 79.9531C138.625 79.5781 139.25 79.3906 139.922 79.3906C141.021 79.3906 141.875 79.7526 142.484 80.4766C143.094 81.2005 143.398 82.237 143.398 83.5859V84.1875H137.672C137.693 85.0208 137.935 85.6953 138.398 86.2109C138.867 86.7214 139.461 86.9766 140.18 86.9766C140.69 86.9766 141.122 86.8724 141.477 86.6641C141.831 86.4557 142.141 86.1797 142.406 85.8359L143.289 86.5234C142.581 87.612 141.518 88.1562 140.102 88.1562ZM139.922 80.5781C139.339 80.5781 138.849 80.7917 138.453 81.2188C138.057 81.6406 137.812 82.2344 137.719 83H141.953V82.8906C141.911 82.1562 141.714 81.5885 141.359 81.1875C141.005 80.7812 140.526 80.5781 139.922 80.5781ZM150 85.7578C150 85.3672 149.852 85.0651 149.555 84.8516C149.263 84.6328 148.75 84.4453 148.016 84.2891C147.286 84.1328 146.706 83.9453 146.273 83.7266C145.846 83.5078 145.529 83.2474 145.32 82.9453C145.117 82.6432 145.016 82.2839 145.016 81.8672C145.016 81.1745 145.307 80.5885 145.891 80.1094C146.479 79.6302 147.229 79.3906 148.141 79.3906C149.099 79.3906 149.875 79.638 150.469 80.1328C151.068 80.6276 151.367 81.2604 151.367 82.0312H149.914C149.914 81.6354 149.745 81.2943 149.406 81.0078C149.073 80.7214 148.651 80.5781 148.141 80.5781C147.615 80.5781 147.203 80.6927 146.906 80.9219C146.609 81.151 146.461 81.4505 146.461 81.8203C146.461 82.1693 146.599 82.4323 146.875 82.6094C147.151 82.7865 147.648 82.9557 148.367 83.1172C149.091 83.2786 149.677 83.4714 150.125 83.6953C150.573 83.9193 150.904 84.1901 151.117 84.5078C151.336 84.8203 151.445 85.2031 151.445 85.6562C151.445 86.4115 151.143 87.0182 150.539 87.4766C149.935 87.9297 149.151 88.1562 148.188 88.1562C147.51 88.1562 146.911 88.0365 146.391 87.7969C145.87 87.5573 145.461 87.224 145.164 86.7969C144.872 86.3646 144.727 85.8984 144.727 85.3984H146.172C146.198 85.8828 146.391 86.2682 146.75 86.5547C147.115 86.8359 147.594 86.9766 148.188 86.9766C148.734 86.9766 149.172 86.8672 149.5 86.6484C149.833 86.4245 150 86.1276 150 85.7578ZM154.898 88H153.453V79.5469H154.898V88ZM153.336 77.3047C153.336 77.0703 153.406 76.8724 153.547 76.7109C153.693 76.5495 153.906 76.4688 154.188 76.4688C154.469 76.4688 154.682 76.5495 154.828 76.7109C154.974 76.8724 155.047 77.0703 155.047 77.3047C155.047 77.5391 154.974 77.7344 154.828 77.8906C154.682 78.0469 154.469 78.125 154.188 78.125C153.906 78.125 153.693 78.0469 153.547 77.8906C153.406 77.7344 153.336 77.5391 153.336 77.3047ZM156.875 83.7031C156.875 82.3854 157.18 81.3385 157.789 80.5625C158.398 79.7812 159.206 79.3906 160.211 79.3906C161.242 79.3906 162.047 79.7552 162.625 80.4844L162.695 79.5469H164.016V87.7969C164.016 88.8906 163.69 89.7526 163.039 90.3828C162.393 91.013 161.523 91.3281 160.43 91.3281C159.82 91.3281 159.224 91.1979 158.641 90.9375C158.057 90.6771 157.612 90.3203 157.305 89.8672L158.055 89C158.674 89.7656 159.432 90.1484 160.328 90.1484C161.031 90.1484 161.578 89.9505 161.969 89.5547C162.365 89.1589 162.562 88.6016 162.562 87.8828V87.1562C161.984 87.8229 161.195 88.1562 160.195 88.1562C159.206 88.1562 158.404 87.7578 157.789 86.9609C157.18 86.1641 156.875 85.0781 156.875 83.7031ZM158.328 83.8672C158.328 84.8203 158.523 85.5703 158.914 86.1172C159.305 86.6589 159.852 86.9297 160.555 86.9297C161.466 86.9297 162.135 86.5156 162.562 85.6875V81.8281C162.12 81.0208 161.456 80.6172 160.57 80.6172C159.867 80.6172 159.318 80.8906 158.922 81.4375C158.526 81.9844 158.328 82.7943 158.328 83.8672ZM167.57 79.5469L167.617 80.6094C168.263 79.7969 169.107 79.3906 170.148 79.3906C171.935 79.3906 172.836 80.3984 172.852 82.4141V88H171.406V82.4062C171.401 81.7969 171.26 81.3464 170.984 81.0547C170.714 80.763 170.289 80.6172 169.711 80.6172C169.242 80.6172 168.831 80.7422 168.477 80.9922C168.122 81.2422 167.846 81.5703 167.648 81.9766V88H166.203V79.5469H167.57Z" fill="black"/>
<path d="M107.047 127.609H108.133C108.815 127.599 109.352 127.419 109.742 127.07C110.133 126.721 110.328 126.25 110.328 125.656C110.328 124.323 109.664 123.656 108.336 123.656C107.711 123.656 107.211 123.836 106.836 124.195C106.466 124.549 106.281 125.021 106.281 125.609H104.836C104.836 124.708 105.164 123.961 105.82 123.367C106.482 122.768 107.32 122.469 108.336 122.469C109.409 122.469 110.25 122.753 110.859 123.32C111.469 123.888 111.773 124.677 111.773 125.688C111.773 126.182 111.612 126.661 111.289 127.125C110.971 127.589 110.536 127.935 109.984 128.164C110.609 128.362 111.091 128.69 111.43 129.148C111.773 129.607 111.945 130.167 111.945 130.828C111.945 131.849 111.612 132.659 110.945 133.258C110.279 133.857 109.411 134.156 108.344 134.156C107.276 134.156 106.406 133.867 105.734 133.289C105.068 132.711 104.734 131.948 104.734 131H106.188C106.188 131.599 106.383 132.078 106.773 132.438C107.164 132.797 107.688 132.977 108.344 132.977C109.042 132.977 109.576 132.794 109.945 132.43C110.315 132.065 110.5 131.542 110.5 130.859C110.5 130.198 110.297 129.69 109.891 129.336C109.484 128.982 108.898 128.799 108.133 128.789H107.047V127.609ZM114.305 134V122.625H117.516C118.505 122.625 119.38 122.844 120.141 123.281C120.901 123.719 121.487 124.341 121.898 125.148C122.315 125.956 122.526 126.883 122.531 127.93V128.656C122.531 129.729 122.323 130.669 121.906 131.477C121.495 132.284 120.904 132.904 120.133 133.336C119.367 133.768 118.474 133.99 117.453 134H114.305ZM115.805 123.859V132.773H117.383C118.539 132.773 119.438 132.414 120.078 131.695C120.724 130.977 121.047 129.953 121.047 128.625V127.961C121.047 126.669 120.742 125.667 120.133 124.953C119.529 124.234 118.669 123.87 117.555 123.859H115.805ZM130.711 122.625L134.43 131.906L138.148 122.625H140.094V134H138.594V129.57L138.734 124.789L135 134H133.852L130.125 124.812L130.273 129.57V134H128.773V122.625H130.711ZM142.133 129.695C142.133 128.867 142.294 128.122 142.617 127.461C142.945 126.799 143.398 126.289 143.977 125.93C144.56 125.57 145.224 125.391 145.969 125.391C147.12 125.391 148.049 125.789 148.758 126.586C149.471 127.383 149.828 128.443 149.828 129.766V129.867C149.828 130.69 149.669 131.43 149.352 132.086C149.039 132.737 148.589 133.245 148 133.609C147.417 133.974 146.745 134.156 145.984 134.156C144.839 134.156 143.909 133.758 143.195 132.961C142.487 132.164 142.133 131.109 142.133 129.797V129.695ZM143.586 129.867C143.586 130.805 143.802 131.557 144.234 132.125C144.672 132.693 145.255 132.977 145.984 132.977C146.719 132.977 147.302 132.69 147.734 132.117C148.167 131.539 148.383 130.732 148.383 129.695C148.383 128.768 148.161 128.018 147.719 127.445C147.281 126.867 146.698 126.578 145.969 126.578C145.255 126.578 144.68 126.862 144.242 127.43C143.805 127.997 143.586 128.81 143.586 129.867ZM151.289 129.703C151.289 128.406 151.596 127.365 152.211 126.578C152.826 125.786 153.63 125.391 154.625 125.391C155.615 125.391 156.398 125.729 156.977 126.406V122H158.422V134H157.094L157.023 133.094C156.445 133.802 155.641 134.156 154.609 134.156C153.63 134.156 152.831 133.755 152.211 132.953C151.596 132.151 151.289 131.104 151.289 129.812V129.703ZM152.734 129.867C152.734 130.826 152.932 131.576 153.328 132.117C153.724 132.659 154.271 132.93 154.969 132.93C155.885 132.93 156.555 132.518 156.977 131.695V127.812C156.544 127.016 155.88 126.617 154.984 126.617C154.276 126.617 153.724 126.891 153.328 127.438C152.932 127.984 152.734 128.794 152.734 129.867ZM164.18 134.156C163.034 134.156 162.102 133.781 161.383 133.031C160.664 132.276 160.305 131.268 160.305 130.008V129.742C160.305 128.904 160.464 128.156 160.781 127.5C161.104 126.839 161.552 126.323 162.125 125.953C162.703 125.578 163.328 125.391 164 125.391C165.099 125.391 165.953 125.753 166.562 126.477C167.172 127.201 167.477 128.237 167.477 129.586V130.188H161.75C161.771 131.021 162.013 131.695 162.477 132.211C162.945 132.721 163.539 132.977 164.258 132.977C164.768 132.977 165.201 132.872 165.555 132.664C165.909 132.456 166.219 132.18 166.484 131.836L167.367 132.523C166.659 133.612 165.596 134.156 164.18 134.156ZM164 126.578C163.417 126.578 162.927 126.792 162.531 127.219C162.135 127.641 161.891 128.234 161.797 129H166.031V128.891C165.99 128.156 165.792 127.589 165.438 127.188C165.083 126.781 164.604 126.578 164 126.578ZM170.727 134H169.281V122H170.727V134ZM174.617 134H173.172V125.547H174.617V134ZM173.055 123.305C173.055 123.07 173.125 122.872 173.266 122.711C173.411 122.549 173.625 122.469 173.906 122.469C174.188 122.469 174.401 122.549 174.547 122.711C174.693 122.872 174.766 123.07 174.766 123.305C174.766 123.539 174.693 123.734 174.547 123.891C174.401 124.047 174.188 124.125 173.906 124.125C173.625 124.125 173.411 124.047 173.266 123.891C173.125 123.734 173.055 123.539 173.055 123.305ZM178.305 125.547L178.352 126.609C178.997 125.797 179.841 125.391 180.883 125.391C182.669 125.391 183.57 126.398 183.586 128.414V134H182.141V128.406C182.135 127.797 181.995 127.346 181.719 127.055C181.448 126.763 181.023 126.617 180.445 126.617C179.977 126.617 179.565 126.742 179.211 126.992C178.857 127.242 178.581 127.57 178.383 127.977V134H176.938V125.547H178.305ZM185.422 129.703C185.422 128.385 185.727 127.339 186.336 126.562C186.945 125.781 187.753 125.391 188.758 125.391C189.789 125.391 190.594 125.755 191.172 126.484L191.242 125.547H192.562V133.797C192.562 134.891 192.237 135.753 191.586 136.383C190.94 137.013 190.07 137.328 188.977 137.328C188.367 137.328 187.771 137.198 187.188 136.938C186.604 136.677 186.159 136.32 185.852 135.867L186.602 135C187.221 135.766 187.979 136.148 188.875 136.148C189.578 136.148 190.125 135.951 190.516 135.555C190.911 135.159 191.109 134.602 191.109 133.883V133.156C190.531 133.823 189.742 134.156 188.742 134.156C187.753 134.156 186.951 133.758 186.336 132.961C185.727 132.164 185.422 131.078 185.422 129.703ZM186.875 129.867C186.875 130.82 187.07 131.57 187.461 132.117C187.852 132.659 188.398 132.93 189.102 132.93C190.013 132.93 190.682 132.516 191.109 131.688V127.828C190.667 127.021 190.003 126.617 189.117 126.617C188.414 126.617 187.865 126.891 187.469 127.438C187.073 127.984 186.875 128.794 186.875 129.867Z" fill="black"/>
<path d="M121.492 174.398H118.82V179H117.312V167.625H121.078C122.359 167.625 123.344 167.917 124.031 168.5C124.724 169.083 125.07 169.932 125.07 171.047C125.07 171.755 124.878 172.372 124.492 172.898C124.112 173.424 123.581 173.818 122.898 174.078L125.57 178.906V179H123.961L121.492 174.398ZM118.82 173.172H121.125C121.87 173.172 122.461 172.979 122.898 172.594C123.341 172.208 123.562 171.693 123.562 171.047C123.562 170.344 123.352 169.805 122.93 169.43C122.513 169.055 121.909 168.865 121.117 168.859H118.82V173.172ZM130.461 179.156C129.315 179.156 128.383 178.781 127.664 178.031C126.945 177.276 126.586 176.268 126.586 175.008V174.742C126.586 173.904 126.745 173.156 127.062 172.5C127.385 171.839 127.833 171.323 128.406 170.953C128.984 170.578 129.609 170.391 130.281 170.391C131.38 170.391 132.234 170.753 132.844 171.477C133.453 172.201 133.758 173.237 133.758 174.586V175.188H128.031C128.052 176.021 128.294 176.695 128.758 177.211C129.227 177.721 129.82 177.977 130.539 177.977C131.049 177.977 131.482 177.872 131.836 177.664C132.19 177.456 132.5 177.18 132.766 176.836L133.648 177.523C132.94 178.612 131.878 179.156 130.461 179.156ZM130.281 171.578C129.698 171.578 129.208 171.792 128.812 172.219C128.417 172.641 128.172 173.234 128.078 174H132.312V173.891C132.271 173.156 132.073 172.589 131.719 172.188C131.365 171.781 130.885 171.578 130.281 171.578ZM140.359 176.758C140.359 176.367 140.211 176.065 139.914 175.852C139.622 175.633 139.109 175.445 138.375 175.289C137.646 175.133 137.065 174.945 136.633 174.727C136.206 174.508 135.888 174.247 135.68 173.945C135.477 173.643 135.375 173.284 135.375 172.867C135.375 172.174 135.667 171.589 136.25 171.109C136.839 170.63 137.589 170.391 138.5 170.391C139.458 170.391 140.234 170.638 140.828 171.133C141.427 171.628 141.727 172.26 141.727 173.031H140.273C140.273 172.635 140.104 172.294 139.766 172.008C139.432 171.721 139.01 171.578 138.5 171.578C137.974 171.578 137.562 171.693 137.266 171.922C136.969 172.151 136.82 172.451 136.82 172.82C136.82 173.169 136.958 173.432 137.234 173.609C137.51 173.786 138.008 173.956 138.727 174.117C139.451 174.279 140.036 174.471 140.484 174.695C140.932 174.919 141.263 175.19 141.477 175.508C141.695 175.82 141.805 176.203 141.805 176.656C141.805 177.411 141.503 178.018 140.898 178.477C140.294 178.93 139.51 179.156 138.547 179.156C137.87 179.156 137.271 179.036 136.75 178.797C136.229 178.557 135.82 178.224 135.523 177.797C135.232 177.365 135.086 176.898 135.086 176.398H136.531C136.557 176.883 136.75 177.268 137.109 177.555C137.474 177.836 137.953 177.977 138.547 177.977C139.094 177.977 139.531 177.867 139.859 177.648C140.193 177.424 140.359 177.128 140.359 176.758ZM147.195 179.156C146.049 179.156 145.117 178.781 144.398 178.031C143.68 177.276 143.32 176.268 143.32 175.008V174.742C143.32 173.904 143.479 173.156 143.797 172.5C144.12 171.839 144.568 171.323 145.141 170.953C145.719 170.578 146.344 170.391 147.016 170.391C148.115 170.391 148.969 170.753 149.578 171.477C150.188 172.201 150.492 173.237 150.492 174.586V175.188H144.766C144.786 176.021 145.029 176.695 145.492 177.211C145.961 177.721 146.555 177.977 147.273 177.977C147.784 177.977 148.216 177.872 148.57 177.664C148.924 177.456 149.234 177.18 149.5 176.836L150.383 177.523C149.674 178.612 148.612 179.156 147.195 179.156ZM147.016 171.578C146.432 171.578 145.943 171.792 145.547 172.219C145.151 172.641 144.906 173.234 144.812 174H149.047V173.891C149.005 173.156 148.807 172.589 148.453 172.188C148.099 171.781 147.62 171.578 147.016 171.578ZM157.391 179C157.307 178.833 157.24 178.536 157.188 178.109C156.516 178.807 155.714 179.156 154.781 179.156C153.948 179.156 153.263 178.922 152.727 178.453C152.195 177.979 151.93 177.38 151.93 176.656C151.93 175.776 152.263 175.094 152.93 174.609C153.602 174.12 154.544 173.875 155.758 173.875H157.164V173.211C157.164 172.706 157.013 172.305 156.711 172.008C156.409 171.706 155.964 171.555 155.375 171.555C154.859 171.555 154.427 171.685 154.078 171.945C153.729 172.206 153.555 172.521 153.555 172.891H152.102C152.102 172.469 152.25 172.062 152.547 171.672C152.849 171.276 153.255 170.964 153.766 170.734C154.281 170.505 154.846 170.391 155.461 170.391C156.435 170.391 157.198 170.635 157.75 171.125C158.302 171.609 158.589 172.279 158.609 173.133V177.023C158.609 177.799 158.708 178.417 158.906 178.875V179H157.391ZM154.992 177.898C155.445 177.898 155.875 177.781 156.281 177.547C156.688 177.312 156.982 177.008 157.164 176.633V174.898H156.031C154.26 174.898 153.375 175.417 153.375 176.453C153.375 176.906 153.526 177.26 153.828 177.516C154.13 177.771 154.518 177.898 154.992 177.898ZM164.961 171.844C164.742 171.807 164.505 171.789 164.25 171.789C163.302 171.789 162.659 172.193 162.32 173V179H160.875V170.547H162.281L162.305 171.523C162.779 170.768 163.451 170.391 164.32 170.391C164.602 170.391 164.815 170.427 164.961 170.5V171.844ZM169.531 177.977C170.047 177.977 170.497 177.82 170.883 177.508C171.268 177.195 171.482 176.805 171.523 176.336H172.891C172.865 176.82 172.698 177.281 172.391 177.719C172.083 178.156 171.672 178.505 171.156 178.766C170.646 179.026 170.104 179.156 169.531 179.156C168.38 179.156 167.464 178.773 166.781 178.008C166.104 177.237 165.766 176.185 165.766 174.852V174.609C165.766 173.786 165.917 173.055 166.219 172.414C166.521 171.773 166.953 171.276 167.516 170.922C168.083 170.568 168.753 170.391 169.523 170.391C170.471 170.391 171.258 170.674 171.883 171.242C172.513 171.81 172.849 172.547 172.891 173.453H171.523C171.482 172.906 171.273 172.458 170.898 172.109C170.529 171.755 170.07 171.578 169.523 171.578C168.789 171.578 168.219 171.844 167.812 172.375C167.411 172.901 167.211 173.664 167.211 174.664V174.938C167.211 175.911 167.411 176.661 167.812 177.188C168.214 177.714 168.786 177.977 169.531 177.977ZM175.961 171.57C176.602 170.784 177.435 170.391 178.461 170.391C180.247 170.391 181.148 171.398 181.164 173.414V179H179.719V173.406C179.714 172.797 179.573 172.346 179.297 172.055C179.026 171.763 178.602 171.617 178.023 171.617C177.555 171.617 177.143 171.742 176.789 171.992C176.435 172.242 176.159 172.57 175.961 172.977V179H174.516V167H175.961V171.57Z" fill="black"/>
<path d="M105.811 237.584L106.461 231.203H113.018V232.706H107.841L107.454 236.195C108.081 235.826 108.793 235.642 109.59 235.642C110.756 235.642 111.682 236.028 112.367 236.802C113.053 237.569 113.396 238.609 113.396 239.922C113.396 241.24 113.038 242.28 112.323 243.042C111.614 243.798 110.621 244.176 109.344 244.176C108.213 244.176 107.29 243.862 106.575 243.235C105.86 242.608 105.453 241.741 105.354 240.634H106.892C106.991 241.366 107.252 241.92 107.674 242.295C108.096 242.664 108.652 242.849 109.344 242.849C110.1 242.849 110.691 242.591 111.119 242.075C111.553 241.56 111.77 240.848 111.77 239.939C111.77 239.084 111.535 238.398 111.066 237.883C110.604 237.361 109.985 237.101 109.212 237.101C108.503 237.101 107.946 237.256 107.542 237.566L107.111 237.918L105.811 237.584ZM125.175 238.542C125.175 240.446 124.85 241.861 124.2 242.787C123.549 243.713 122.533 244.176 121.15 244.176C119.785 244.176 118.774 243.725 118.118 242.822C117.461 241.914 117.122 240.561 117.098 238.762V236.591C117.098 234.71 117.423 233.312 118.074 232.398C118.724 231.484 119.744 231.027 121.132 231.027C122.509 231.027 123.523 231.47 124.173 232.354C124.824 233.233 125.158 234.593 125.175 236.433V238.542ZM123.549 236.318C123.549 234.941 123.356 233.939 122.969 233.312C122.583 232.68 121.97 232.363 121.132 232.363C120.3 232.363 119.694 232.677 119.313 233.304C118.932 233.931 118.736 234.895 118.724 236.195V238.797C118.724 240.18 118.923 241.202 119.322 241.864C119.726 242.521 120.335 242.849 121.15 242.849C121.953 242.849 122.547 242.538 122.934 241.917C123.327 241.296 123.532 240.317 123.549 238.981V236.318ZM135.698 240.704C135.698 240.165 135.508 239.711 135.127 239.342C134.752 238.973 134.116 238.639 133.22 238.34C131.972 237.959 131.061 237.464 130.486 236.854C129.918 236.239 129.634 235.46 129.634 234.517C129.634 233.556 129.912 232.768 130.469 232.152C131.031 231.537 131.802 231.171 132.78 231.054V229.129H134.09V231.062C135.074 231.197 135.839 231.61 136.384 232.302C136.935 232.993 137.21 233.939 137.21 235.141H135.593C135.593 234.314 135.397 233.658 135.004 233.172C134.611 232.686 134.081 232.442 133.413 232.442C132.716 232.442 132.183 232.624 131.814 232.987C131.444 233.345 131.26 233.846 131.26 234.49C131.26 235.088 131.453 235.565 131.84 235.923C132.232 236.274 132.874 236.597 133.765 236.89C134.661 237.177 135.358 237.496 135.856 237.848C136.36 238.193 136.73 238.598 136.964 239.061C137.204 239.523 137.324 240.065 137.324 240.687C137.324 241.677 137.025 242.474 136.428 243.077C135.836 243.681 135.004 244.038 133.932 244.149V245.828H132.631V244.149C131.541 244.05 130.686 243.663 130.064 242.989C129.449 242.31 129.142 241.39 129.142 240.229H130.768C130.768 241.044 130.981 241.671 131.409 242.11C131.837 242.55 132.443 242.77 133.229 242.77C133.996 242.77 134.6 242.585 135.039 242.216C135.479 241.847 135.698 241.343 135.698 240.704ZM144.877 239.228H140.587V237.9H144.877V239.228ZM154.661 231.194V232.574H154.362C153.097 232.598 152.089 232.973 151.339 233.699C150.589 234.426 150.155 235.448 150.038 236.767C150.712 235.993 151.632 235.606 152.798 235.606C153.911 235.606 154.799 235.999 155.461 236.784C156.129 237.569 156.463 238.583 156.463 239.825C156.463 241.144 156.103 242.198 155.382 242.989C154.667 243.78 153.706 244.176 152.499 244.176C151.274 244.176 150.281 243.707 149.52 242.77C148.758 241.826 148.377 240.613 148.377 239.131V238.507C148.377 236.151 148.878 234.353 149.88 233.11C150.888 231.862 152.385 231.224 154.371 231.194H154.661ZM152.525 236.96C151.969 236.96 151.456 237.127 150.987 237.461C150.519 237.795 150.193 238.214 150.012 238.718V239.315C150.012 240.37 150.249 241.22 150.724 241.864C151.198 242.509 151.79 242.831 152.499 242.831C153.232 242.831 153.806 242.562 154.222 242.022C154.644 241.483 154.855 240.777 154.855 239.904C154.855 239.025 154.641 238.316 154.213 237.777C153.791 237.232 153.229 236.96 152.525 236.96ZM168.392 238.542C168.392 240.446 168.067 241.861 167.417 242.787C166.766 243.713 165.75 244.176 164.367 244.176C163.002 244.176 161.991 243.725 161.335 242.822C160.678 241.914 160.338 240.561 160.315 238.762V236.591C160.315 234.71 160.64 233.312 161.291 232.398C161.941 231.484 162.961 231.027 164.349 231.027C165.726 231.027 166.74 231.47 167.39 232.354C168.041 233.233 168.375 234.593 168.392 236.433V238.542ZM166.766 236.318C166.766 234.941 166.573 233.939 166.186 233.312C165.799 232.68 165.187 232.363 164.349 232.363C163.517 232.363 162.911 232.677 162.53 233.304C162.149 233.931 161.953 234.895 161.941 236.195V238.797C161.941 240.18 162.14 241.202 162.539 241.864C162.943 242.521 163.552 242.849 164.367 242.849C165.17 242.849 165.764 242.538 166.151 241.917C166.544 241.296 166.749 240.317 166.766 238.981V236.318ZM180.48 238.542C180.48 240.446 180.154 241.861 179.504 242.787C178.854 243.713 177.837 244.176 176.454 244.176C175.089 244.176 174.078 243.725 173.422 242.822C172.766 241.914 172.426 240.561 172.402 238.762V236.591C172.402 234.71 172.728 233.312 173.378 232.398C174.028 231.484 175.048 231.027 176.437 231.027C177.814 231.027 178.827 231.47 179.478 232.354C180.128 233.233 180.462 234.593 180.48 236.433V238.542ZM178.854 236.318C178.854 234.941 178.66 233.939 178.274 233.312C177.887 232.68 177.275 232.363 176.437 232.363C175.605 232.363 174.998 232.677 174.617 233.304C174.236 233.931 174.04 234.895 174.028 236.195V238.797C174.028 240.18 174.228 241.202 174.626 241.864C175.03 242.521 175.64 242.849 176.454 242.849C177.257 242.849 177.852 242.538 178.238 241.917C178.631 241.296 178.836 240.317 178.854 238.981V236.318ZM191.003 240.704C191.003 240.165 190.812 239.711 190.431 239.342C190.056 238.973 189.421 238.639 188.524 238.34C187.276 237.959 186.365 237.464 185.791 236.854C185.222 236.239 184.938 235.46 184.938 234.517C184.938 233.556 185.216 232.768 185.773 232.152C186.336 231.537 187.106 231.171 188.085 231.054V229.129H189.394V231.062C190.379 231.197 191.143 231.61 191.688 232.302C192.239 232.993 192.514 233.939 192.514 235.141H190.897C190.897 234.314 190.701 233.658 190.308 233.172C189.916 232.686 189.385 232.442 188.717 232.442C188.02 232.442 187.487 232.624 187.118 232.987C186.749 233.345 186.564 233.846 186.564 234.49C186.564 235.088 186.757 235.565 187.144 235.923C187.537 236.274 188.178 236.597 189.069 236.89C189.965 237.177 190.663 237.496 191.161 237.848C191.665 238.193 192.034 238.598 192.268 239.061C192.508 239.523 192.629 240.065 192.629 240.687C192.629 241.677 192.33 242.474 191.732 243.077C191.14 243.681 190.308 244.038 189.236 244.149V245.828H187.935V244.149C186.845 244.05 185.99 243.663 185.369 242.989C184.754 242.31 184.446 241.39 184.446 240.229H186.072C186.072 241.044 186.286 241.671 186.714 242.11C187.141 242.55 187.748 242.77 188.533 242.77C189.3 242.77 189.904 242.585 190.343 242.216C190.783 241.847 191.003 241.343 191.003 240.704Z" fill="#2099EA"/>
<rect x="50.5" y="211.5" width="197" height="52" rx="6.5" stroke="#8F8F8F" stroke-width="3"/>
<line y1="0.5" x2="298" y2="0.5" stroke="black" stroke-dasharray="1 1"/>
</svg>
