<svg width="1023" height="153" viewBox="0 0 1023 153" fill="none" xmlns="http://www.w3.org/2000/svg">
<path fill-rule="evenodd" clip-rule="evenodd" d="M263 1H0V145H262.5H263L305 145L263 102.859V1Z" fill="#F7C949"/>
<path d="M97.1348 58.1973C97.1348 57.2949 96.8125 56.5918 96.168 56.0879C95.5352 55.584 94.416 55.0625 92.8105 54.5234C91.2051 53.9844 89.8926 53.4629 88.873 52.959C85.5566 51.3301 83.8984 49.0918 83.8984 46.2441C83.8984 44.8262 84.3086 43.5781 85.1289 42.5C85.9609 41.4102 87.1328 40.5664 88.6445 39.9688C90.1562 39.3594 91.8555 39.0547 93.7422 39.0547C95.582 39.0547 97.2285 39.3828 98.6816 40.0391C100.146 40.6953 101.283 41.6328 102.092 42.8516C102.9 44.0586 103.305 45.4414 103.305 47H97.1523C97.1523 45.957 96.8301 45.1484 96.1855 44.5742C95.5527 44 94.6914 43.7129 93.6016 43.7129C92.5 43.7129 91.627 43.959 90.9824 44.4512C90.3496 44.9316 90.0332 45.5469 90.0332 46.2969C90.0332 46.9531 90.3848 47.5508 91.0879 48.0898C91.791 48.6172 93.0273 49.168 94.7969 49.7422C96.5664 50.3047 98.0195 50.9141 99.1562 51.5703C101.922 53.1641 103.305 55.3613 103.305 58.1621C103.305 60.4004 102.461 62.1582 100.773 63.4355C99.0859 64.7129 96.7715 65.3516 93.8301 65.3516C91.7559 65.3516 89.875 64.9824 88.1875 64.2441C86.5117 63.4941 85.2461 62.4746 84.3906 61.1855C83.5469 59.8848 83.125 58.3906 83.125 56.7031H89.3125C89.3125 58.0742 89.6641 59.0879 90.3672 59.7441C91.082 60.3887 92.2363 60.7109 93.8301 60.7109C94.8496 60.7109 95.6523 60.4941 96.2383 60.0605C96.8359 59.6152 97.1348 58.9941 97.1348 58.1973ZM128.143 52.7305C128.143 55.2266 127.68 57.4355 126.754 59.3574C125.828 61.2793 124.51 62.7617 122.799 63.8047C121.1 64.8359 119.16 65.3516 116.98 65.3516C114.801 65.3516 112.867 64.8535 111.18 63.8574C109.492 62.8496 108.174 61.4141 107.225 59.5508C106.287 57.6875 105.795 55.5488 105.748 53.1348V51.6934C105.748 49.1855 106.205 46.9766 107.119 45.0664C108.045 43.1445 109.363 41.6621 111.074 40.6191C112.797 39.5762 114.754 39.0547 116.945 39.0547C119.113 39.0547 121.047 39.5703 122.746 40.6016C124.445 41.6328 125.764 43.1035 126.701 45.0137C127.65 46.9121 128.131 49.0918 128.143 51.5527V52.7305ZM121.867 51.6582C121.867 49.1152 121.439 47.1875 120.584 45.875C119.74 44.5508 118.527 43.8887 116.945 43.8887C113.852 43.8887 112.217 46.209 112.041 50.8496L112.023 52.7305C112.023 55.2383 112.439 57.166 113.271 58.5137C114.104 59.8613 115.34 60.5352 116.98 60.5352C118.539 60.5352 119.74 59.873 120.584 58.5488C121.428 57.2246 121.855 55.3203 121.867 52.8359V51.6582ZM139.428 39.4062L145.141 57.2129L150.836 39.4062H158.957V65H152.77V59.0234L153.367 46.7891L147.18 65H143.102L136.896 46.7715L137.494 59.0234V65H131.324V39.4062H139.428ZM178.768 54.1543H169.064V60.2539H180.525V65H162.895V39.4062H180.561V44.1699H169.064V49.5664H178.768V54.1543ZM100.053 94.8047H90.1035V105H83.9336V79.4062H101.055V84.1699H90.1035V90.0586H100.053V94.8047ZM114.783 100.219H106.328L104.852 105H98.2598L107.646 79.4062H113.447L122.904 105H116.277L114.783 100.219ZM107.805 95.4551H113.307L110.547 86.5781L107.805 95.4551ZM145.105 96.334C145.023 98.1152 144.543 99.6914 143.664 101.062C142.785 102.422 141.549 103.477 139.955 104.227C138.373 104.977 136.562 105.352 134.523 105.352C131.16 105.352 128.512 104.256 126.578 102.064C124.645 99.873 123.678 96.7793 123.678 92.7832V91.5176C123.678 89.0098 124.111 86.8184 124.979 84.9434C125.857 83.0566 127.117 81.6035 128.758 80.584C130.398 79.5527 132.297 79.0371 134.453 79.0371C137.559 79.0371 140.055 79.8574 141.941 81.498C143.828 83.127 144.9 85.377 145.158 88.248H139.006C138.959 86.6895 138.566 85.5703 137.828 84.8906C137.09 84.2109 135.965 83.8711 134.453 83.8711C132.918 83.8711 131.793 84.4453 131.078 85.5938C130.363 86.7422 129.988 88.5762 129.953 91.0957V92.9062C129.953 95.6367 130.293 97.5879 130.973 98.7598C131.664 99.9316 132.848 100.518 134.523 100.518C135.941 100.518 137.025 100.184 137.775 99.5156C138.525 98.8477 138.924 97.7871 138.971 96.334H145.105ZM167.588 84.1699H159.906V105H153.736V84.1699H146.195V79.4062H167.588V84.1699ZM183.127 98.1973C183.127 97.2949 182.805 96.5918 182.16 96.0879C181.527 95.584 180.408 95.0625 178.803 94.5234C177.197 93.9844 175.885 93.4629 174.865 92.959C171.549 91.3301 169.891 89.0918 169.891 86.2441C169.891 84.8262 170.301 83.5781 171.121 82.5C171.953 81.4102 173.125 80.5664 174.637 79.9688C176.148 79.3594 177.848 79.0547 179.734 79.0547C181.574 79.0547 183.221 79.3828 184.674 80.0391C186.139 80.6953 187.275 81.6328 188.084 82.8516C188.893 84.0586 189.297 85.4414 189.297 87H183.145C183.145 85.957 182.822 85.1484 182.178 84.5742C181.545 84 180.684 83.7129 179.594 83.7129C178.492 83.7129 177.619 83.959 176.975 84.4512C176.342 84.9316 176.025 85.5469 176.025 86.2969C176.025 86.9531 176.377 87.5508 177.08 88.0898C177.783 88.6172 179.02 89.168 180.789 89.7422C182.559 90.3047 184.012 90.9141 185.148 91.5703C187.914 93.1641 189.297 95.3613 189.297 98.1621C189.297 100.4 188.453 102.158 186.766 103.436C185.078 104.713 182.764 105.352 179.822 105.352C177.748 105.352 175.867 104.982 174.18 104.244C172.504 103.494 171.238 102.475 170.383 101.186C169.539 99.8848 169.117 98.3906 169.117 96.7031H175.305C175.305 98.0742 175.656 99.0879 176.359 99.7441C177.074 100.389 178.229 100.711 179.822 100.711C180.842 100.711 181.645 100.494 182.23 100.061C182.828 99.6152 183.127 98.9941 183.127 98.1973Z" fill="black"/>
<path d="M408.351 89H390.196V31.207L372.364 36.417V22.667L406.686 10.7969H408.351V89ZM486.231 57.042C486.231 67.6051 483.85 75.7513 479.088 81.4805C474.361 87.2096 467.683 90.0742 459.054 90.0742C450.353 90.0742 443.621 87.1917 438.858 81.4268C434.096 75.6618 431.715 67.5335 431.715 57.042V42.7549C431.715 32.1917 434.078 24.0456 438.805 18.3164C443.567 12.5872 450.281 9.72266 458.946 9.72266C467.612 9.72266 474.326 12.6051 479.088 18.3701C483.85 24.1351 486.231 32.2812 486.231 42.8086V57.042ZM468.131 40.4453C468.131 34.8236 467.397 30.6341 465.929 27.877C464.461 25.084 462.133 23.6875 458.946 23.6875C455.831 23.6875 453.557 24.9766 452.125 27.5547C450.729 30.1328 449.977 34.0358 449.869 39.2637V59.2441C449.869 65.0807 450.603 69.3597 452.071 72.0811C453.539 74.7666 455.867 76.1094 459.054 76.1094C462.133 76.1094 464.407 74.8024 465.875 72.1885C467.343 69.5387 468.095 65.403 468.131 59.7812V40.4453ZM549.933 57.042C549.933 67.6051 547.551 75.7513 542.789 81.4805C538.062 87.2096 531.384 90.0742 522.755 90.0742C514.054 90.0742 507.322 87.1917 502.56 81.4268C497.797 75.6618 495.416 67.5335 495.416 57.042V42.7549C495.416 32.1917 497.779 24.0456 502.506 18.3164C507.268 12.5872 513.982 9.72266 522.647 9.72266C531.313 9.72266 538.027 12.6051 542.789 18.3701C547.551 24.1351 549.933 32.2812 549.933 42.8086V57.042ZM531.832 40.4453C531.832 34.8236 531.098 30.6341 529.63 27.877C528.162 25.084 525.834 23.6875 522.647 23.6875C519.532 23.6875 517.258 24.9766 515.826 27.5547C514.43 30.1328 513.678 34.0358 513.57 39.2637V59.2441C513.57 65.0807 514.304 69.3597 515.772 72.0811C517.241 74.7666 519.568 76.1094 522.755 76.1094C525.834 76.1094 528.108 74.8024 529.576 72.1885C531.044 69.5387 531.796 65.403 531.832 59.7812V40.4453ZM376.608 145.349H371.238V151H369.551V138.203H377.478V139.592H371.238V143.969H376.608V145.349ZM382.03 151H380.343V138.203H382.03V151ZM395.679 151H393.983L387.54 141.139V151H385.844V138.203H387.54L394 148.108V138.203H395.679V151ZM401.207 151H399.519V138.203H401.207V151ZM408.791 145.296C407.344 144.88 406.289 144.37 405.627 143.767C404.971 143.157 404.642 142.407 404.642 141.517C404.642 140.509 405.044 139.677 405.847 139.021C406.655 138.358 407.704 138.027 408.993 138.027C409.872 138.027 410.654 138.197 411.34 138.537C412.031 138.877 412.564 139.346 412.939 139.943C413.32 140.541 413.511 141.194 413.511 141.903H411.814C411.814 141.13 411.568 140.523 411.076 140.084C410.584 139.639 409.89 139.416 408.993 139.416C408.161 139.416 407.511 139.601 407.042 139.97C406.579 140.333 406.348 140.84 406.348 141.49C406.348 142.012 406.567 142.454 407.007 142.817C407.452 143.175 408.205 143.503 409.266 143.802C410.332 144.101 411.164 144.432 411.762 144.795C412.365 145.152 412.81 145.571 413.098 146.052C413.391 146.532 413.537 147.098 413.537 147.748C413.537 148.785 413.133 149.617 412.324 150.244C411.516 150.865 410.434 151.176 409.081 151.176C408.202 151.176 407.382 151.009 406.62 150.675C405.858 150.335 405.269 149.872 404.853 149.286C404.443 148.7 404.238 148.035 404.238 147.291H405.934C405.934 148.064 406.219 148.677 406.787 149.128C407.361 149.573 408.126 149.796 409.081 149.796C409.972 149.796 410.654 149.614 411.129 149.251C411.603 148.888 411.841 148.393 411.841 147.766C411.841 147.139 411.621 146.655 411.182 146.315C410.742 145.97 409.945 145.63 408.791 145.296ZM426.263 151H424.567V145.085H418.115V151H416.428V138.203H418.115V143.705H424.567V138.203H426.263V151ZM437.213 145.085H431.667V149.62H438.11V151H429.98V138.203H438.022V139.592H431.667V143.705H437.213V145.085ZM440.93 151V138.203H444.543C445.656 138.203 446.64 138.449 447.496 138.941C448.351 139.434 449.01 140.134 449.473 141.042C449.942 141.95 450.179 142.993 450.185 144.171V144.988C450.185 146.195 449.951 147.253 449.482 148.161C449.019 149.069 448.354 149.767 447.487 150.253C446.626 150.739 445.621 150.988 444.472 151H440.93ZM442.618 139.592V149.62H444.393C445.694 149.62 446.705 149.216 447.426 148.407C448.152 147.599 448.515 146.447 448.515 144.953V144.206C448.515 142.753 448.173 141.625 447.487 140.822C446.807 140.014 445.841 139.604 444.587 139.592H442.618ZM460.335 145.99V151H458.648V138.203H463.367C464.768 138.203 465.864 138.561 466.655 139.275C467.451 139.99 467.85 140.937 467.85 142.114C467.85 143.356 467.46 144.314 466.681 144.988C465.908 145.656 464.797 145.99 463.35 145.99H460.335ZM460.335 144.61H463.367C464.27 144.61 464.961 144.399 465.442 143.978C465.922 143.55 466.162 142.935 466.162 142.132C466.162 141.37 465.922 140.761 465.442 140.304C464.961 139.847 464.302 139.609 463.464 139.592H460.335V144.61ZM475.417 145.823H472.411V151H470.714V138.203H474.951C476.392 138.203 477.5 138.531 478.273 139.188C479.052 139.844 479.442 140.799 479.442 142.053C479.442 142.85 479.225 143.544 478.792 144.136C478.364 144.728 477.766 145.17 476.999 145.463L480.004 150.895V151H478.194L475.417 145.823ZM472.411 144.443H475.003C475.841 144.443 476.506 144.227 476.999 143.793C477.497 143.359 477.746 142.779 477.746 142.053C477.746 141.262 477.508 140.655 477.034 140.233C476.565 139.812 475.885 139.598 474.995 139.592H472.411V144.443ZM492.379 145.015C492.379 146.269 492.168 147.364 491.746 148.302C491.324 149.233 490.726 149.945 489.953 150.438C489.18 150.93 488.277 151.176 487.246 151.176C486.238 151.176 485.345 150.93 484.565 150.438C483.786 149.939 483.18 149.233 482.746 148.319C482.318 147.399 482.098 146.336 482.087 145.129V144.206C482.087 142.976 482.301 141.889 482.728 140.945C483.156 140.002 483.76 139.281 484.539 138.783C485.324 138.279 486.221 138.027 487.228 138.027C488.254 138.027 489.156 138.276 489.935 138.774C490.721 139.267 491.324 139.984 491.746 140.928C492.168 141.865 492.379 142.958 492.379 144.206V145.015ZM490.7 144.188C490.7 142.671 490.395 141.508 489.786 140.699C489.177 139.885 488.324 139.478 487.228 139.478C486.162 139.478 485.321 139.885 484.706 140.699C484.097 141.508 483.783 142.633 483.765 144.074V145.015C483.765 146.485 484.073 147.643 484.688 148.486C485.309 149.324 486.162 149.743 487.246 149.743C488.336 149.743 489.18 149.348 489.777 148.557C490.375 147.76 490.682 146.62 490.7 145.138V144.188ZM500.991 138.203H502.688V147.265C502.688 148.489 502.318 149.447 501.58 150.139C500.848 150.83 499.869 151.176 498.645 151.176C497.373 151.176 496.383 150.851 495.674 150.2C494.965 149.55 494.61 148.639 494.61 147.467H496.298C496.298 148.199 496.497 148.771 496.896 149.181C497.3 149.591 497.883 149.796 498.645 149.796C499.342 149.796 499.904 149.576 500.332 149.137C500.766 148.697 500.985 148.082 500.991 147.291V138.203ZM513.515 145.085H507.969V149.62H514.412V151H506.282V138.203H514.324V139.592H507.969V143.705H513.515V145.085ZM526.645 146.939C526.487 148.293 525.986 149.339 525.142 150.077C524.304 150.81 523.188 151.176 521.794 151.176C520.282 151.176 519.069 150.634 518.155 149.55C517.247 148.466 516.793 147.016 516.793 145.199V143.969C516.793 142.779 517.004 141.733 517.425 140.831C517.853 139.929 518.457 139.237 519.236 138.757C520.015 138.271 520.918 138.027 521.943 138.027C523.302 138.027 524.392 138.408 525.213 139.17C526.033 139.926 526.51 140.975 526.645 142.316H524.949C524.802 141.297 524.483 140.559 523.991 140.102C523.505 139.645 522.822 139.416 521.943 139.416C520.865 139.416 520.018 139.814 519.403 140.611C518.794 141.408 518.489 142.542 518.489 144.013V145.252C518.489 146.641 518.779 147.745 519.359 148.565C519.939 149.386 520.751 149.796 521.794 149.796C522.731 149.796 523.449 149.585 523.947 149.163C524.451 148.735 524.785 147.994 524.949 146.939H526.645ZM538.255 139.592H534.142V151H532.463V139.592H528.358V138.203H538.255V139.592ZM544.503 145.296C543.056 144.88 542.001 144.37 541.339 143.767C540.683 143.157 540.355 142.407 540.355 141.517C540.355 140.509 540.756 139.677 541.559 139.021C542.367 138.358 543.416 138.027 544.705 138.027C545.584 138.027 546.366 138.197 547.052 138.537C547.743 138.877 548.277 139.346 548.652 139.943C549.032 140.541 549.223 141.194 549.223 141.903H547.527C547.527 141.13 547.281 140.523 546.788 140.084C546.296 139.639 545.602 139.416 544.705 139.416C543.873 139.416 543.223 139.601 542.754 139.97C542.291 140.333 542.06 140.84 542.06 141.49C542.06 142.012 542.28 142.454 542.719 142.817C543.164 143.175 543.917 143.503 544.978 143.802C546.044 144.101 546.876 144.432 547.474 144.795C548.077 145.152 548.523 145.571 548.81 146.052C549.103 146.532 549.249 147.098 549.249 147.748C549.249 148.785 548.845 149.617 548.036 150.244C547.228 150.865 546.147 151.176 544.793 151.176C543.914 151.176 543.094 151.009 542.332 150.675C541.571 150.335 540.982 149.872 540.566 149.286C540.156 148.7 539.95 148.035 539.95 147.291H541.647C541.647 148.064 541.931 148.677 542.499 149.128C543.073 149.573 543.838 149.796 544.793 149.796C545.684 149.796 546.366 149.614 546.841 149.251C547.316 148.888 547.553 148.393 547.553 147.766C547.553 147.139 547.333 146.655 546.894 146.315C546.454 145.97 545.657 145.63 544.503 145.296Z" fill="black"/>
<path d="M655.955 88H639.451V35.4609L623.24 40.1973V27.6973L654.441 16.9062H655.955V88ZM726.756 58.9473C726.756 68.5501 724.591 75.9557 720.262 81.1641C715.965 86.3724 709.894 88.9766 702.049 88.9766C694.139 88.9766 688.019 86.3561 683.689 81.1152C679.36 75.8743 677.195 68.485 677.195 58.9473V45.959C677.195 36.3561 679.344 28.9505 683.641 23.7422C687.97 18.5339 694.074 15.9297 701.951 15.9297C709.829 15.9297 715.932 18.5501 720.262 23.791C724.591 29.0319 726.756 36.4375 726.756 46.0078V58.9473ZM710.301 43.8594C710.301 38.7487 709.633 34.9401 708.299 32.4336C706.964 29.8945 704.848 28.625 701.951 28.625C699.119 28.625 697.052 29.7969 695.75 32.1406C694.48 34.4844 693.797 38.0326 693.699 42.7852V60.9492C693.699 66.2552 694.367 70.1452 695.701 72.6191C697.036 75.0605 699.152 76.2812 702.049 76.2812C704.848 76.2812 706.915 75.0931 708.25 72.7168C709.585 70.3079 710.268 66.5482 710.301 61.4375V43.8594ZM784.666 58.9473C784.666 68.5501 782.501 75.9557 778.172 81.1641C773.875 86.3724 767.804 88.9766 759.959 88.9766C752.049 88.9766 745.929 86.3561 741.6 81.1152C737.27 75.8743 735.105 68.485 735.105 58.9473V45.959C735.105 36.3561 737.254 28.9505 741.551 23.7422C745.88 18.5339 751.984 15.9297 759.861 15.9297C767.739 15.9297 773.842 18.5501 778.172 23.791C782.501 29.0319 784.666 36.4375 784.666 46.0078V58.9473ZM768.211 43.8594C768.211 38.7487 767.544 34.9401 766.209 32.4336C764.874 29.8945 762.758 28.625 759.861 28.625C757.029 28.625 754.962 29.7969 753.66 32.1406C752.391 34.4844 751.707 38.0326 751.609 42.7852V60.9492C751.609 66.2552 752.277 70.1452 753.611 72.6191C754.946 75.0605 757.062 76.2812 759.959 76.2812C762.758 76.2812 764.826 75.0931 766.16 72.7168C767.495 70.3079 768.178 66.5482 768.211 61.4375V43.8594ZM624.582 150H622.886V144.085H616.435V150H614.747V137.203H616.435V142.705H622.886V137.203H624.582V150ZM635.524 146.66H630.162L628.958 150H627.218L632.105 137.203H633.581L638.477 150H636.745L635.524 146.66ZM630.672 145.271H635.023L632.843 139.286L630.672 145.271ZM642.607 144.99V150H640.92V137.203H645.639C647.04 137.203 648.135 137.561 648.926 138.275C649.723 138.99 650.122 139.937 650.122 141.114C650.122 142.356 649.732 143.314 648.953 143.988C648.179 144.656 647.069 144.99 645.622 144.99H642.607ZM642.607 143.61H645.639C646.542 143.61 647.233 143.399 647.713 142.978C648.194 142.55 648.434 141.935 648.434 141.132C648.434 140.37 648.194 139.761 647.713 139.304C647.233 138.847 646.574 138.609 645.736 138.592H642.607V143.61ZM654.682 144.99V150H652.995V137.203H657.715C659.115 137.203 660.211 137.561 661.002 138.275C661.799 138.99 662.197 139.937 662.197 141.114C662.197 142.356 661.807 143.314 661.028 143.988C660.255 144.656 659.144 144.99 657.697 144.99H654.682ZM654.682 143.61H657.715C658.617 143.61 659.308 143.399 659.789 142.978C660.269 142.55 660.51 141.935 660.51 141.132C660.51 140.37 660.269 139.761 659.789 139.304C659.308 138.847 658.649 138.609 657.811 138.592H654.682V143.61ZM668.973 143.628L672.313 137.203H674.229L669.817 145.228V150H668.129V145.228L663.717 137.203H665.651L668.973 143.628ZM691.199 145.939C691.041 147.293 690.54 148.339 689.696 149.077C688.858 149.81 687.742 150.176 686.347 150.176C684.836 150.176 683.623 149.634 682.709 148.55C681.801 147.466 681.346 146.016 681.346 144.199V142.969C681.346 141.779 681.557 140.733 681.979 139.831C682.407 138.929 683.01 138.237 683.79 137.757C684.569 137.271 685.471 137.027 686.497 137.027C687.856 137.027 688.946 137.408 689.766 138.17C690.587 138.926 691.064 139.975 691.199 141.316H689.503C689.356 140.297 689.037 139.559 688.545 139.102C688.058 138.645 687.376 138.416 686.497 138.416C685.419 138.416 684.572 138.814 683.957 139.611C683.347 140.408 683.043 141.542 683.043 143.013V144.252C683.043 145.641 683.333 146.745 683.913 147.565C684.493 148.386 685.304 148.796 686.347 148.796C687.285 148.796 688.003 148.585 688.501 148.163C689.005 147.735 689.339 146.994 689.503 145.939H691.199ZM703.239 137.203V145.904C703.233 147.111 702.853 148.099 702.097 148.866C701.347 149.634 700.327 150.064 699.038 150.158L698.59 150.176C697.189 150.176 696.073 149.798 695.241 149.042C694.409 148.286 693.987 147.246 693.976 145.922V137.203H695.646V145.869C695.646 146.795 695.9 147.516 696.41 148.031C696.92 148.541 697.646 148.796 698.59 148.796C699.545 148.796 700.274 148.541 700.778 148.031C701.288 147.521 701.543 146.804 701.543 145.878V137.203H703.239ZM710.393 144.296C708.946 143.88 707.891 143.37 707.229 142.767C706.573 142.157 706.244 141.407 706.244 140.517C706.244 139.509 706.646 138.677 707.449 138.021C708.257 137.358 709.306 137.027 710.595 137.027C711.474 137.027 712.256 137.197 712.942 137.537C713.633 137.877 714.166 138.346 714.541 138.943C714.922 139.541 715.113 140.194 715.113 140.903H713.416C713.416 140.13 713.17 139.523 712.678 139.084C712.186 138.639 711.491 138.416 710.595 138.416C709.763 138.416 709.113 138.601 708.644 138.97C708.181 139.333 707.949 139.84 707.949 140.49C707.949 141.012 708.169 141.454 708.609 141.817C709.054 142.175 709.807 142.503 710.867 142.802C711.934 143.101 712.766 143.432 713.364 143.795C713.967 144.152 714.412 144.571 714.699 145.052C714.992 145.532 715.139 146.098 715.139 146.748C715.139 147.785 714.735 148.617 713.926 149.244C713.117 149.865 712.036 150.176 710.683 150.176C709.804 150.176 708.984 150.009 708.222 149.675C707.46 149.335 706.871 148.872 706.455 148.286C706.045 147.7 705.84 147.035 705.84 146.291H707.536C707.536 147.064 707.821 147.677 708.389 148.128C708.963 148.573 709.728 148.796 710.683 148.796C711.574 148.796 712.256 148.614 712.731 148.251C713.205 147.888 713.443 147.393 713.443 146.766C713.443 146.139 713.223 145.655 712.783 145.315C712.344 144.97 711.547 144.63 710.393 144.296ZM726.872 138.592H722.758V150H721.08V138.592H716.975V137.203H726.872V138.592ZM739.088 144.015C739.088 145.269 738.877 146.364 738.455 147.302C738.033 148.233 737.435 148.945 736.662 149.438C735.889 149.93 734.986 150.176 733.955 150.176C732.947 150.176 732.054 149.93 731.274 149.438C730.495 148.939 729.889 148.233 729.455 147.319C729.027 146.399 728.807 145.336 728.796 144.129V143.206C728.796 141.976 729.01 140.889 729.437 139.945C729.865 139.002 730.469 138.281 731.248 137.783C732.033 137.279 732.93 137.027 733.937 137.027C734.963 137.027 735.865 137.276 736.644 137.774C737.43 138.267 738.033 138.984 738.455 139.928C738.877 140.865 739.088 141.958 739.088 143.206V144.015ZM737.409 143.188C737.409 141.671 737.104 140.508 736.495 139.699C735.886 138.885 735.033 138.478 733.937 138.478C732.871 138.478 732.03 138.885 731.415 139.699C730.806 140.508 730.492 141.633 730.474 143.074V144.015C730.474 145.485 730.782 146.643 731.397 147.486C732.018 148.324 732.871 148.743 733.955 148.743C735.045 148.743 735.889 148.348 736.486 147.557C737.084 146.76 737.391 145.62 737.409 144.138V143.188ZM744.519 137.203L748.702 147.645L752.886 137.203H755.074V150H753.387V145.017L753.545 139.638L749.344 150H748.052L743.859 139.664L744.026 145.017V150H742.339V137.203H744.519ZM766.007 144.085H760.461V148.62H766.904V150H758.774V137.203H766.816V138.592H760.461V142.705H766.007V144.085ZM774.418 144.823H771.412V150H769.716V137.203H773.952C775.393 137.203 776.501 137.531 777.274 138.188C778.053 138.844 778.443 139.799 778.443 141.053C778.443 141.85 778.226 142.544 777.793 143.136C777.365 143.728 776.767 144.17 776 144.463L779.006 149.895V150H777.195L774.418 144.823ZM771.412 143.443H774.005C774.842 143.443 775.508 143.227 776 142.793C776.498 142.359 776.747 141.779 776.747 141.053C776.747 140.262 776.509 139.655 776.035 139.233C775.566 138.812 774.886 138.598 773.996 138.592H771.412V143.443ZM785.307 144.296C783.859 143.88 782.805 143.37 782.143 142.767C781.486 142.157 781.158 141.407 781.158 140.517C781.158 139.509 781.56 138.677 782.362 138.021C783.171 137.358 784.22 137.027 785.509 137.027C786.388 137.027 787.17 137.197 787.855 137.537C788.547 137.877 789.08 138.346 789.455 138.943C789.836 139.541 790.026 140.194 790.026 140.903H788.33C788.33 140.13 788.084 139.523 787.592 139.084C787.1 138.639 786.405 138.416 785.509 138.416C784.677 138.416 784.026 138.601 783.558 138.97C783.095 139.333 782.863 139.84 782.863 140.49C782.863 141.012 783.083 141.454 783.522 141.817C783.968 142.175 784.721 142.503 785.781 142.802C786.848 143.101 787.68 143.432 788.277 143.795C788.881 144.152 789.326 144.571 789.613 145.052C789.906 145.532 790.053 146.098 790.053 146.748C790.053 147.785 789.648 148.617 788.84 149.244C788.031 149.865 786.95 150.176 785.597 150.176C784.718 150.176 783.897 150.009 783.136 149.675C782.374 149.335 781.785 148.872 781.369 148.286C780.959 147.7 780.754 147.035 780.754 146.291H782.45C782.45 147.064 782.734 147.677 783.303 148.128C783.877 148.573 784.642 148.796 785.597 148.796C786.487 148.796 787.17 148.614 787.645 148.251C788.119 147.888 788.356 147.393 788.356 146.766C788.356 146.139 788.137 145.655 787.697 145.315C787.258 144.97 786.461 144.63 785.307 144.296Z" fill="black"/>
<path d="M889.955 88H873.451V35.4609L857.24 40.1973V27.6973L888.441 16.9062H889.955V88ZM960.756 58.9473C960.756 68.5501 958.591 75.9557 954.262 81.1641C949.965 86.3724 943.894 88.9766 936.049 88.9766C928.139 88.9766 922.019 86.3561 917.689 81.1152C913.36 75.8743 911.195 68.485 911.195 58.9473V45.959C911.195 36.3561 913.344 28.9505 917.641 23.7422C921.97 18.5339 928.074 15.9297 935.951 15.9297C943.829 15.9297 949.932 18.5501 954.262 23.791C958.591 29.0319 960.756 36.4375 960.756 46.0078V58.9473ZM944.301 43.8594C944.301 38.7487 943.633 34.9401 942.299 32.4336C940.964 29.8945 938.848 28.625 935.951 28.625C933.119 28.625 931.052 29.7969 929.75 32.1406C928.48 34.4844 927.797 38.0326 927.699 42.7852V60.9492C927.699 66.2552 928.367 70.1452 929.701 72.6191C931.036 75.0605 933.152 76.2812 936.049 76.2812C938.848 76.2812 940.915 75.0931 942.25 72.7168C943.585 70.3079 944.268 66.5482 944.301 61.4375V43.8594ZM1018.67 58.9473C1018.67 68.5501 1016.5 75.9557 1012.17 81.1641C1007.88 86.3724 1001.8 88.9766 993.959 88.9766C986.049 88.9766 979.929 86.3561 975.6 81.1152C971.27 75.8743 969.105 68.485 969.105 58.9473V45.959C969.105 36.3561 971.254 28.9505 975.551 23.7422C979.88 18.5339 985.984 15.9297 993.861 15.9297C1001.74 15.9297 1007.84 18.5501 1012.17 23.791C1016.5 29.0319 1018.67 36.4375 1018.67 46.0078V58.9473ZM1002.21 43.8594C1002.21 38.7487 1001.54 34.9401 1000.21 32.4336C998.874 29.8945 996.758 28.625 993.861 28.625C991.029 28.625 988.962 29.7969 987.66 32.1406C986.391 34.4844 985.707 38.0326 985.609 42.7852V60.9492C985.609 66.2552 986.277 70.1452 987.611 72.6191C988.946 75.0605 991.062 76.2812 993.959 76.2812C996.758 76.2812 998.826 75.0931 1000.16 72.7168C1001.49 70.3079 1002.18 66.5482 1002.21 61.4375V43.8594ZM863.995 145.966L864.242 147.653L864.602 146.133L867.133 137.203H868.557L871.027 146.133L871.378 147.68L871.651 145.957L873.637 137.203H875.333L872.231 150H870.693L868.056 140.675L867.854 139.699L867.652 140.675L864.918 150H863.38L860.286 137.203H861.974L863.995 145.966ZM887.778 144.015C887.778 145.269 887.567 146.364 887.145 147.302C886.723 148.233 886.126 148.945 885.352 149.438C884.579 149.93 883.676 150.176 882.645 150.176C881.637 150.176 880.744 149.93 879.964 149.438C879.185 148.939 878.579 148.233 878.145 147.319C877.717 146.399 877.498 145.336 877.486 144.129V143.206C877.486 141.976 877.7 140.889 878.128 139.945C878.555 139.002 879.159 138.281 879.938 137.783C880.723 137.279 881.62 137.027 882.628 137.027C883.653 137.027 884.555 137.276 885.335 137.774C886.12 138.267 886.723 138.984 887.145 139.928C887.567 140.865 887.778 141.958 887.778 143.206V144.015ZM886.099 143.188C886.099 141.671 885.795 140.508 885.185 139.699C884.576 138.885 883.723 138.478 882.628 138.478C881.561 138.478 880.72 138.885 880.105 139.699C879.496 140.508 879.182 141.633 879.165 143.074V144.015C879.165 145.485 879.472 146.643 880.087 147.486C880.709 148.324 881.561 148.743 882.645 148.743C883.735 148.743 884.579 148.348 885.176 147.557C885.774 146.76 886.082 145.62 886.099 144.138V143.188ZM895.723 144.823H892.717V150H891.02V137.203H895.257C896.698 137.203 897.806 137.531 898.579 138.188C899.358 138.844 899.748 139.799 899.748 141.053C899.748 141.85 899.531 142.544 899.098 143.136C898.67 143.728 898.072 144.17 897.305 144.463L900.31 149.895V150H898.5L895.723 144.823ZM892.717 143.443H895.309C896.147 143.443 896.812 143.227 897.305 142.793C897.803 142.359 898.052 141.779 898.052 141.053C898.052 140.262 897.814 139.655 897.34 139.233C896.871 138.812 896.191 138.598 895.301 138.592H892.717V143.443ZM906.093 144.05L904.528 145.676V150H902.841V137.203H904.528V143.531L910.215 137.203H912.254L907.218 142.854L912.65 150H910.628L906.093 144.05ZM916.657 150H914.969V137.203H916.657V150ZM930.305 150H928.609L922.167 140.139V150H920.47V137.203H922.167L928.627 147.108V137.203H930.305V150ZM943.471 148.321C943.037 148.942 942.431 149.408 941.651 149.719C940.878 150.023 939.976 150.176 938.944 150.176C937.901 150.176 936.976 149.933 936.167 149.446C935.358 148.954 934.731 148.257 934.286 147.354C933.847 146.452 933.621 145.406 933.609 144.217V143.101C933.609 141.173 934.058 139.679 934.954 138.618C935.856 137.558 937.122 137.027 938.751 137.027C940.087 137.027 941.162 137.37 941.977 138.056C942.791 138.735 943.289 139.702 943.471 140.956H941.783C941.467 139.263 940.459 138.416 938.76 138.416C937.629 138.416 936.771 138.814 936.185 139.611C935.604 140.402 935.312 141.551 935.306 143.057V144.103C935.306 145.538 935.634 146.681 936.29 147.53C936.946 148.374 937.834 148.796 938.953 148.796C939.586 148.796 940.14 148.726 940.614 148.585C941.089 148.444 941.481 148.207 941.792 147.873V144.999H938.83V143.628H943.471V148.321ZM962.032 150H960.336V144.085H953.884V150H952.197V137.203H953.884V142.705H960.336V137.203H962.032V150ZM975.593 144.015C975.593 145.269 975.382 146.364 974.96 147.302C974.538 148.233 973.94 148.945 973.167 149.438C972.393 149.93 971.491 150.176 970.46 150.176C969.452 150.176 968.558 149.93 967.779 149.438C967 148.939 966.393 148.233 965.96 147.319C965.532 146.399 965.312 145.336 965.301 144.129V143.206C965.301 141.976 965.514 140.889 965.942 139.945C966.37 139.002 966.973 138.281 967.753 137.783C968.538 137.279 969.434 137.027 970.442 137.027C971.468 137.027 972.37 137.276 973.149 137.774C973.934 138.267 974.538 138.984 974.96 139.928C975.382 140.865 975.593 141.958 975.593 143.206V144.015ZM973.914 143.188C973.914 141.671 973.609 140.508 973 139.699C972.39 138.885 971.538 138.478 970.442 138.478C969.376 138.478 968.535 138.885 967.92 139.699C967.31 140.508 966.997 141.633 966.979 143.074V144.015C966.979 145.485 967.287 146.643 967.902 147.486C968.523 148.324 969.376 148.743 970.46 148.743C971.55 148.743 972.393 148.348 972.991 147.557C973.589 146.76 973.896 145.62 973.914 144.138V143.188ZM987.853 137.203V145.904C987.847 147.111 987.466 148.099 986.71 148.866C985.96 149.634 984.941 150.064 983.651 150.158L983.203 150.176C981.803 150.176 980.687 149.798 979.855 149.042C979.023 148.286 978.601 147.246 978.589 145.922V137.203H980.259V145.869C980.259 146.795 980.514 147.516 981.024 148.031C981.533 148.541 982.26 148.796 983.203 148.796C984.158 148.796 984.888 148.541 985.392 148.031C985.901 147.521 986.156 146.804 986.156 145.878V137.203H987.853ZM995.929 144.823H992.923V150H991.227V137.203H995.463C996.905 137.203 998.012 137.531 998.786 138.188C999.565 138.844 999.954 139.799 999.954 141.053C999.954 141.85 999.738 142.544 999.304 143.136C998.876 143.728 998.279 144.17 997.511 144.463L1000.52 149.895V150H998.706L995.929 144.823ZM992.923 143.443H995.516C996.354 143.443 997.019 143.227 997.511 142.793C998.009 142.359 998.258 141.779 998.258 141.053C998.258 140.262 998.021 139.655 997.546 139.233C997.078 138.812 996.398 138.598 995.507 138.592H992.923V143.443ZM1006.82 144.296C1005.37 143.88 1004.32 143.37 1003.65 142.767C1003 142.157 1002.67 141.407 1002.67 140.517C1002.67 139.509 1003.07 138.677 1003.87 138.021C1004.68 137.358 1005.73 137.027 1007.02 137.027C1007.9 137.027 1008.68 137.197 1009.37 137.537C1010.06 137.877 1010.59 138.346 1010.97 138.943C1011.35 139.541 1011.54 140.194 1011.54 140.903H1009.84C1009.84 140.13 1009.6 139.523 1009.1 139.084C1008.61 138.639 1007.92 138.416 1007.02 138.416C1006.19 138.416 1005.54 138.601 1005.07 138.97C1004.61 139.333 1004.37 139.84 1004.37 140.49C1004.37 141.012 1004.59 141.454 1005.03 141.817C1005.48 142.175 1006.23 142.503 1007.29 142.802C1008.36 143.101 1009.19 143.432 1009.79 143.795C1010.39 144.152 1010.84 144.571 1011.12 145.052C1011.42 145.532 1011.56 146.098 1011.56 146.748C1011.56 147.785 1011.16 148.617 1010.35 149.244C1009.54 149.865 1008.46 150.176 1007.11 150.176C1006.23 150.176 1005.41 150.009 1004.65 149.675C1003.89 149.335 1003.3 148.872 1002.88 148.286C1002.47 147.7 1002.27 147.035 1002.27 146.291H1003.96C1003.96 147.064 1004.25 147.677 1004.81 148.128C1005.39 148.573 1006.15 148.796 1007.11 148.796C1008 148.796 1008.68 148.614 1009.16 148.251C1009.63 147.888 1009.87 147.393 1009.87 146.766C1009.87 146.139 1009.65 145.655 1009.21 145.315C1008.77 144.97 1007.97 144.63 1006.82 144.296Z" fill="black"/>
</svg>
