<svg width="192" height="153" viewBox="0 0 192 153" fill="none" xmlns="http://www.w3.org/2000/svg">
<path d="M44.9023 89H26.748V31.207L8.91602 36.417V22.667L43.2373 10.7969H44.9023V89ZM122.783 57.042C122.783 67.6051 120.402 75.7513 115.64 81.4805C110.913 87.2096 104.235 90.0742 95.6055 90.0742C86.9043 90.0742 80.1725 87.1917 75.4102 81.4268C70.6478 75.6618 68.2666 67.5335 68.2666 57.042V42.7549C68.2666 32.1917 70.6299 24.0456 75.3564 18.3164C80.1188 12.5872 86.8327 9.72266 95.498 9.72266C104.163 9.72266 110.877 12.6051 115.64 18.3701C120.402 24.1351 122.783 32.2812 122.783 42.8086V57.042ZM104.683 40.4453C104.683 34.8236 103.949 30.6341 102.48 27.877C101.012 25.084 98.6849 23.6875 95.498 23.6875C92.3828 23.6875 90.109 24.9766 88.6768 27.5547C87.2803 30.1328 86.5283 34.0358 86.4209 39.2637V59.2441C86.4209 65.0807 87.1549 69.3597 88.623 72.0811C90.0911 74.7666 92.4186 76.1094 95.6055 76.1094C98.6849 76.1094 100.959 74.8024 102.427 72.1885C103.895 69.5387 104.647 65.403 104.683 59.7812V40.4453ZM186.484 57.042C186.484 67.6051 184.103 75.7513 179.341 81.4805C174.614 87.2096 167.936 90.0742 159.307 90.0742C150.605 90.0742 143.874 87.1917 139.111 81.4268C134.349 75.6618 131.968 67.5335 131.968 57.042V42.7549C131.968 32.1917 134.331 24.0456 139.058 18.3164C143.82 12.5872 150.534 9.72266 159.199 9.72266C167.865 9.72266 174.578 12.6051 179.341 18.3701C184.103 24.1351 186.484 32.2812 186.484 42.8086V57.042ZM168.384 40.4453C168.384 34.8236 167.65 30.6341 166.182 27.877C164.714 25.084 162.386 23.6875 159.199 23.6875C156.084 23.6875 153.81 24.9766 152.378 27.5547C150.981 30.1328 150.229 34.0358 150.122 39.2637V59.2441C150.122 65.0807 150.856 69.3597 152.324 72.0811C153.792 74.7666 156.12 76.1094 159.307 76.1094C162.386 76.1094 164.66 74.8024 166.128 72.1885C167.596 69.5387 168.348 65.403 168.384 59.7812V40.4453ZM8.54297 145.349H3.17285V151H1.48535V138.203H9.41309V139.592H3.17285V143.969H8.54297V145.349ZM13.9651 151H12.2776V138.203H13.9651V151ZM27.6138 151H25.9175L19.4752 141.139V151H17.7789V138.203H19.4752L25.9351 148.108V138.203H27.6138V151ZM33.1414 151H31.4539V138.203H33.1414V151ZM40.7257 145.296C39.2784 144.88 38.2238 144.37 37.5616 143.767C36.9054 143.157 36.5773 142.407 36.5773 141.517C36.5773 140.509 36.9786 139.677 37.7814 139.021C38.59 138.358 39.6388 138.027 40.9279 138.027C41.8068 138.027 42.589 138.197 43.2745 138.537C43.9659 138.877 44.4991 139.346 44.8741 139.943C45.255 140.541 45.4454 141.194 45.4454 141.903H43.7491C43.7491 141.13 43.503 140.523 43.0109 140.084C42.5187 139.639 41.8243 139.416 40.9279 139.416C40.0958 139.416 39.4454 139.601 38.9767 139.97C38.5138 140.333 38.2823 140.84 38.2823 141.49C38.2823 142.012 38.5021 142.454 38.9415 142.817C39.3868 143.175 40.1398 143.503 41.2003 143.802C42.2667 144.101 43.0988 144.432 43.6964 144.795C44.2999 145.152 44.7452 145.571 45.0323 146.052C45.3253 146.532 45.4718 147.098 45.4718 147.748C45.4718 148.785 45.0675 149.617 44.2589 150.244C43.4503 150.865 42.3693 151.176 41.0157 151.176C40.1368 151.176 39.3165 151.009 38.5548 150.675C37.7931 150.335 37.2042 149.872 36.7882 149.286C36.378 148.7 36.173 148.035 36.173 147.291H37.8693C37.8693 148.064 38.1534 148.677 38.7218 149.128C39.296 149.573 40.0607 149.796 41.0157 149.796C41.9064 149.796 42.589 149.614 43.0636 149.251C43.5382 148.888 43.7755 148.393 43.7755 147.766C43.7755 147.139 43.5558 146.655 43.1163 146.315C42.6769 145.97 41.88 145.63 40.7257 145.296ZM58.1977 151H56.5014V145.085H50.0502V151H48.3627V138.203H50.0502V143.705H56.5014V138.203H58.1977V151ZM69.1481 145.085H63.6022V149.62H70.0446V151H61.9147V138.203H69.9567V139.592H63.6022V143.705H69.1481V145.085ZM72.8652 151V138.203H76.4775C77.5908 138.203 78.5752 138.449 79.4306 138.941C80.2861 139.434 80.9453 140.134 81.4082 141.042C81.8769 141.95 82.1142 142.993 82.1201 144.171V144.988C82.1201 146.195 81.8857 147.253 81.417 148.161C80.9541 149.069 80.289 149.767 79.4218 150.253C78.5605 150.739 77.5556 150.988 76.4072 151H72.8652ZM74.5527 139.592V149.62H76.3281C77.6289 149.62 78.6396 149.216 79.3603 148.407C80.0869 147.599 80.4502 146.447 80.4502 144.953V144.206C80.4502 142.753 80.1074 141.625 79.4218 140.822C78.7421 140.014 77.7754 139.604 76.5214 139.592H74.5527ZM92.27 145.99V151H90.5825V138.203H95.3023C96.7027 138.203 97.7984 138.561 98.5894 139.275C99.3863 139.99 99.7847 140.937 99.7847 142.114C99.7847 143.356 99.395 144.314 98.6157 144.988C97.8423 145.656 96.732 145.99 95.2847 145.99H92.27ZM92.27 144.61H95.3023C96.2046 144.61 96.896 144.399 97.3765 143.978C97.857 143.55 98.0972 142.935 98.0972 142.132C98.0972 141.37 97.857 140.761 97.3765 140.304C96.896 139.847 96.2368 139.609 95.3989 139.592H92.27V144.61ZM107.351 145.823H104.346V151H102.649V138.203H106.886C108.327 138.203 109.434 138.531 110.208 139.188C110.987 139.844 111.377 140.799 111.377 142.053C111.377 142.85 111.16 143.544 110.726 144.136C110.299 144.728 109.701 145.17 108.933 145.463L111.939 150.895V151H110.129L107.351 145.823ZM104.346 144.443H106.938C107.776 144.443 108.441 144.227 108.933 143.793C109.431 143.359 109.68 142.779 109.68 142.053C109.68 141.262 109.443 140.655 108.969 140.233C108.5 139.812 107.82 139.598 106.929 139.592H104.346V144.443ZM124.314 145.015C124.314 146.269 124.103 147.364 123.681 148.302C123.259 149.233 122.661 149.945 121.888 150.438C121.114 150.93 120.212 151.176 119.181 151.176C118.173 151.176 117.279 150.93 116.5 150.438C115.721 149.939 115.114 149.233 114.681 148.319C114.253 147.399 114.033 146.336 114.022 145.129V144.206C114.022 142.976 114.235 141.889 114.663 140.945C115.091 140.002 115.694 139.281 116.474 138.783C117.259 138.279 118.155 138.027 119.163 138.027C120.189 138.027 121.091 138.276 121.87 138.774C122.655 139.267 123.259 139.984 123.681 140.928C124.103 141.865 124.314 142.958 124.314 144.206V145.015ZM122.635 144.188C122.635 142.671 122.33 141.508 121.721 140.699C121.111 139.885 120.259 139.478 119.163 139.478C118.097 139.478 117.256 139.885 116.641 140.699C116.031 141.508 115.718 142.633 115.7 144.074V145.015C115.7 146.485 116.008 147.643 116.623 148.486C117.244 149.324 118.097 149.743 119.181 149.743C120.271 149.743 121.114 149.348 121.712 148.557C122.31 147.76 122.617 146.62 122.635 145.138V144.188ZM132.926 138.203H134.622V147.265C134.622 148.489 134.253 149.447 133.515 150.139C132.783 150.83 131.804 151.176 130.579 151.176C129.308 151.176 128.318 150.851 127.609 150.2C126.9 149.55 126.545 148.639 126.545 147.467H128.233C128.233 148.199 128.432 148.771 128.83 149.181C129.235 149.591 129.818 149.796 130.579 149.796C131.277 149.796 131.839 149.576 132.267 149.137C132.701 148.697 132.92 148.082 132.926 147.291V138.203ZM145.45 145.085H139.904V149.62H146.346V151H138.216V138.203H146.258V139.592H139.904V143.705H145.45V145.085ZM158.58 146.939C158.422 148.293 157.921 149.339 157.077 150.077C156.239 150.81 155.123 151.176 153.728 151.176C152.217 151.176 151.004 150.634 150.09 149.55C149.182 148.466 148.727 147.016 148.727 145.199V143.969C148.727 142.779 148.938 141.733 149.36 140.831C149.788 139.929 150.392 139.237 151.171 138.757C151.95 138.271 152.852 138.027 153.878 138.027C155.237 138.027 156.327 138.408 157.147 139.17C157.968 139.926 158.445 140.975 158.58 142.316H156.884C156.737 141.297 156.418 140.559 155.926 140.102C155.439 139.645 154.757 139.416 153.878 139.416C152.8 139.416 151.953 139.814 151.338 140.611C150.728 141.408 150.424 142.542 150.424 144.013V145.252C150.424 146.641 150.714 147.745 151.294 148.565C151.874 149.386 152.685 149.796 153.728 149.796C154.666 149.796 155.384 149.585 155.882 149.163C156.386 148.735 156.72 147.994 156.884 146.939H158.58ZM170.19 139.592H166.076V151H164.398V139.592H160.293V138.203H170.19V139.592ZM176.438 145.296C174.991 144.88 173.936 144.37 173.274 143.767C172.618 143.157 172.29 142.407 172.29 141.517C172.29 140.509 172.691 139.677 173.494 139.021C174.302 138.358 175.351 138.027 176.64 138.027C177.519 138.027 178.301 138.197 178.987 138.537C179.678 138.877 180.211 139.346 180.586 139.943C180.967 140.541 181.158 141.194 181.158 141.903H179.461C179.461 141.13 179.215 140.523 178.723 140.084C178.231 139.639 177.537 139.416 176.64 139.416C175.808 139.416 175.158 139.601 174.689 139.97C174.226 140.333 173.995 140.84 173.995 141.49C173.995 142.012 174.214 142.454 174.654 142.817C175.099 143.175 175.852 143.503 176.913 143.802C177.979 144.101 178.811 144.432 179.409 144.795C180.012 145.152 180.458 145.571 180.745 146.052C181.038 146.532 181.184 147.098 181.184 147.748C181.184 148.785 180.78 149.617 179.971 150.244C179.163 150.865 178.082 151.176 176.728 151.176C175.849 151.176 175.029 151.009 174.267 150.675C173.505 150.335 172.916 149.872 172.5 149.286C172.09 148.7 171.885 148.035 171.885 147.291H173.582C173.582 148.064 173.866 148.677 174.434 149.128C175.008 149.573 175.773 149.796 176.728 149.796C177.619 149.796 178.301 149.614 178.776 149.251C179.25 148.888 179.488 148.393 179.488 147.766C179.488 147.139 179.268 146.655 178.829 146.315C178.389 145.97 177.592 145.63 176.438 145.296Z" fill="black"/>
</svg>
