<svg width="257" height="95" viewBox="0 0 257 95" fill="none" xmlns="http://www.w3.org/2000/svg">
<path fill-rule="evenodd" clip-rule="evenodd" d="M257 0H0V81H242.848L256.605 94.2953L256.96 81H257V0Z" fill="#2099EA"/>
<path d="M61.6758 46.6719L65.6133 27.4062H70.0254L64.1191 53H59.8652L54.9961 34.3145L50.0215 53H45.75L39.8438 27.4062H44.2559L48.2285 46.6367L53.1152 27.4062H56.8418L61.6758 46.6719ZM96.1177 53H91.688V41.627H80.2446V53H75.7973V27.4062H80.2446V38.0586H91.688V27.4062H96.1177V53ZM124.337 40.8711C124.337 43.3789 123.903 45.582 123.036 47.4805C122.169 49.3672 120.927 50.8203 119.31 51.8398C117.704 52.8477 115.853 53.3516 113.755 53.3516C111.681 53.3516 109.829 52.8477 108.2 51.8398C106.583 50.8203 105.329 49.373 104.438 47.498C103.56 45.623 103.114 43.4609 103.103 41.0117V39.5703C103.103 37.0742 103.542 34.8711 104.421 32.9609C105.311 31.0508 106.56 29.5918 108.165 28.584C109.782 27.5645 111.634 27.0547 113.72 27.0547C115.806 27.0547 117.651 27.5586 119.257 28.5664C120.874 29.5625 122.122 31.0039 123.001 32.8906C123.88 34.7656 124.325 36.9512 124.337 39.4473V40.8711ZM119.89 39.5352C119.89 36.6992 119.351 34.5254 118.272 33.0137C117.206 31.502 115.688 30.7461 113.72 30.7461C111.798 30.7461 110.292 31.502 109.202 33.0137C108.124 34.5137 107.573 36.6406 107.55 39.3945V40.8711C107.55 43.6836 108.095 45.8574 109.185 47.3926C110.286 48.9277 111.81 49.6953 113.755 49.6953C115.724 49.6953 117.235 48.9453 118.29 47.4453C119.356 45.9453 119.89 43.7539 119.89 40.8711V39.5352ZM147.465 53H143.035V27.4062H147.465V53ZM181.263 47.041H171.349L169.274 53H164.651L174.319 27.4062H178.309L187.995 53H183.354L181.263 47.041ZM172.597 43.4551H180.015L176.306 32.8379L172.597 43.4551ZM199.199 27.4062L206.581 47.0234L213.947 27.4062H219.695V53H215.265V44.5625L215.704 33.2773L208.146 53H204.964L197.423 33.2949L197.863 44.5625V53H193.433V27.4062H199.199Z" fill="black"/>
</svg>
