<svg width="298" height="265" viewBox="0 0 298 265" fill="none" xmlns="http://www.w3.org/2000/svg">
<path d="M117.32 43V31.625H120.531C121.521 31.625 122.396 31.8438 123.156 32.2812C123.917 32.7188 124.503 33.3411 124.914 34.1484C125.331 34.9557 125.542 35.8828 125.547 36.9297V37.6562C125.547 38.7292 125.339 39.6693 124.922 40.4766C124.51 41.2839 123.919 41.9036 123.148 42.3359C122.383 42.7682 121.49 42.9896 120.469 43H117.32ZM118.82 32.8594V41.7734H120.398C121.555 41.7734 122.453 41.4141 123.094 40.6953C123.74 39.9766 124.062 38.9531 124.062 37.625V36.9609C124.062 35.6693 123.758 34.6667 123.148 33.9531C122.544 33.2344 121.685 32.8698 120.57 32.8594H118.82ZM131.102 43.1562C129.956 43.1562 129.023 42.7812 128.305 42.0312C127.586 41.276 127.227 40.2682 127.227 39.0078V38.7422C127.227 37.9036 127.385 37.1562 127.703 36.5C128.026 35.8385 128.474 35.3229 129.047 34.9531C129.625 34.5781 130.25 34.3906 130.922 34.3906C132.021 34.3906 132.875 34.7526 133.484 35.4766C134.094 36.2005 134.398 37.237 134.398 38.5859V39.1875H128.672C128.693 40.0208 128.935 40.6953 129.398 41.2109C129.867 41.7214 130.461 41.9766 131.18 41.9766C131.69 41.9766 132.122 41.8724 132.477 41.6641C132.831 41.4557 133.141 41.1797 133.406 40.8359L134.289 41.5234C133.581 42.612 132.518 43.1562 131.102 43.1562ZM130.922 35.5781C130.339 35.5781 129.849 35.7917 129.453 36.2188C129.057 36.6406 128.812 37.2344 128.719 38H132.953V37.8906C132.911 37.1562 132.714 36.5885 132.359 36.1875C132.005 35.7812 131.526 35.5781 130.922 35.5781ZM138.758 41.0391L140.852 34.5469H142.328L139.297 43H138.195L135.133 34.5469H136.609L138.758 41.0391ZM147.117 43.1562C145.971 43.1562 145.039 42.7812 144.32 42.0312C143.602 41.276 143.242 40.2682 143.242 39.0078V38.7422C143.242 37.9036 143.401 37.1562 143.719 36.5C144.042 35.8385 144.49 35.3229 145.062 34.9531C145.641 34.5781 146.266 34.3906 146.938 34.3906C148.036 34.3906 148.891 34.7526 149.5 35.4766C150.109 36.2005 150.414 37.237 150.414 38.5859V39.1875H144.688C144.708 40.0208 144.951 40.6953 145.414 41.2109C145.883 41.7214 146.477 41.9766 147.195 41.9766C147.706 41.9766 148.138 41.8724 148.492 41.6641C148.846 41.4557 149.156 41.1797 149.422 40.8359L150.305 41.5234C149.596 42.612 148.534 43.1562 147.117 43.1562ZM146.938 35.5781C146.354 35.5781 145.865 35.7917 145.469 36.2188C145.073 36.6406 144.828 37.2344 144.734 38H148.969V37.8906C148.927 37.1562 148.729 36.5885 148.375 36.1875C148.021 35.7812 147.542 35.5781 146.938 35.5781ZM153.664 43H152.219V31H153.664V43ZM155.602 38.6953C155.602 37.8672 155.763 37.1224 156.086 36.4609C156.414 35.7995 156.867 35.2891 157.445 34.9297C158.029 34.5703 158.693 34.3906 159.438 34.3906C160.589 34.3906 161.518 34.7891 162.227 35.5859C162.94 36.3828 163.297 37.4427 163.297 38.7656V38.8672C163.297 39.6901 163.138 40.4297 162.82 41.0859C162.508 41.737 162.057 42.2448 161.469 42.6094C160.885 42.974 160.214 43.1562 159.453 43.1562C158.307 43.1562 157.378 42.7578 156.664 41.9609C155.956 41.1641 155.602 40.1094 155.602 38.7969V38.6953ZM157.055 38.8672C157.055 39.8047 157.271 40.5573 157.703 41.125C158.141 41.6927 158.724 41.9766 159.453 41.9766C160.188 41.9766 160.771 41.6901 161.203 41.1172C161.635 40.5391 161.852 39.7318 161.852 38.6953C161.852 37.7682 161.63 37.0182 161.188 36.4453C160.75 35.8672 160.167 35.5781 159.438 35.5781C158.724 35.5781 158.148 35.862 157.711 36.4297C157.273 36.9974 157.055 37.8099 157.055 38.8672ZM172.25 38.8672C172.25 40.1536 171.956 41.1901 171.367 41.9766C170.779 42.763 169.982 43.1562 168.977 43.1562C167.951 43.1562 167.143 42.8307 166.555 42.1797V46.25H165.109V34.5469H166.43L166.5 35.4844C167.089 34.7552 167.906 34.3906 168.953 34.3906C169.969 34.3906 170.771 34.7734 171.359 35.5391C171.953 36.3047 172.25 37.3698 172.25 38.7344V38.8672ZM170.805 38.7031C170.805 37.75 170.602 36.9974 170.195 36.4453C169.789 35.8932 169.232 35.6172 168.523 35.6172C167.648 35.6172 166.992 36.0052 166.555 36.7812V40.8203C166.987 41.5911 167.648 41.9766 168.539 41.9766C169.232 41.9766 169.781 41.7031 170.188 41.1562C170.599 40.6042 170.805 39.7865 170.805 38.7031ZM177.602 43.1562C176.456 43.1562 175.523 42.7812 174.805 42.0312C174.086 41.276 173.727 40.2682 173.727 39.0078V38.7422C173.727 37.9036 173.885 37.1562 174.203 36.5C174.526 35.8385 174.974 35.3229 175.547 34.9531C176.125 34.5781 176.75 34.3906 177.422 34.3906C178.521 34.3906 179.375 34.7526 179.984 35.4766C180.594 36.2005 180.898 37.237 180.898 38.5859V39.1875H175.172C175.193 40.0208 175.435 40.6953 175.898 41.2109C176.367 41.7214 176.961 41.9766 177.68 41.9766C178.19 41.9766 178.622 41.8724 178.977 41.6641C179.331 41.4557 179.641 41.1797 179.906 40.8359L180.789 41.5234C180.081 42.612 179.018 43.1562 177.602 43.1562ZM177.422 35.5781C176.839 35.5781 176.349 35.7917 175.953 36.2188C175.557 36.6406 175.312 37.2344 175.219 38H179.453V37.8906C179.411 37.1562 179.214 36.5885 178.859 36.1875C178.505 35.7812 178.026 35.5781 177.422 35.5781Z" fill="black"/>
<path d="M126.32 88V76.625H129.531C130.521 76.625 131.396 76.8438 132.156 77.2812C132.917 77.7188 133.503 78.3411 133.914 79.1484C134.331 79.9557 134.542 80.8828 134.547 81.9297V82.6562C134.547 83.7292 134.339 84.6693 133.922 85.4766C133.51 86.2839 132.919 86.9036 132.148 87.3359C131.383 87.7682 130.49 87.9896 129.469 88H126.32ZM127.82 77.8594V86.7734H129.398C130.555 86.7734 131.453 86.4141 132.094 85.6953C132.74 84.9766 133.062 83.9531 133.062 82.625V81.9609C133.062 80.6693 132.758 79.6667 132.148 78.9531C131.544 78.2344 130.685 77.8698 129.57 77.8594H127.82ZM140.102 88.1562C138.956 88.1562 138.023 87.7812 137.305 87.0312C136.586 86.276 136.227 85.2682 136.227 84.0078V83.7422C136.227 82.9036 136.385 82.1562 136.703 81.5C137.026 80.8385 137.474 80.3229 138.047 79.9531C138.625 79.5781 139.25 79.3906 139.922 79.3906C141.021 79.3906 141.875 79.7526 142.484 80.4766C143.094 81.2005 143.398 82.237 143.398 83.5859V84.1875H137.672C137.693 85.0208 137.935 85.6953 138.398 86.2109C138.867 86.7214 139.461 86.9766 140.18 86.9766C140.69 86.9766 141.122 86.8724 141.477 86.6641C141.831 86.4557 142.141 86.1797 142.406 85.8359L143.289 86.5234C142.581 87.612 141.518 88.1562 140.102 88.1562ZM139.922 80.5781C139.339 80.5781 138.849 80.7917 138.453 81.2188C138.057 81.6406 137.812 82.2344 137.719 83H141.953V82.8906C141.911 82.1562 141.714 81.5885 141.359 81.1875C141.005 80.7812 140.526 80.5781 139.922 80.5781ZM150 85.7578C150 85.3672 149.852 85.0651 149.555 84.8516C149.263 84.6328 148.75 84.4453 148.016 84.2891C147.286 84.1328 146.706 83.9453 146.273 83.7266C145.846 83.5078 145.529 83.2474 145.32 82.9453C145.117 82.6432 145.016 82.2839 145.016 81.8672C145.016 81.1745 145.307 80.5885 145.891 80.1094C146.479 79.6302 147.229 79.3906 148.141 79.3906C149.099 79.3906 149.875 79.638 150.469 80.1328C151.068 80.6276 151.367 81.2604 151.367 82.0312H149.914C149.914 81.6354 149.745 81.2943 149.406 81.0078C149.073 80.7214 148.651 80.5781 148.141 80.5781C147.615 80.5781 147.203 80.6927 146.906 80.9219C146.609 81.151 146.461 81.4505 146.461 81.8203C146.461 82.1693 146.599 82.4323 146.875 82.6094C147.151 82.7865 147.648 82.9557 148.367 83.1172C149.091 83.2786 149.677 83.4714 150.125 83.6953C150.573 83.9193 150.904 84.1901 151.117 84.5078C151.336 84.8203 151.445 85.2031 151.445 85.6562C151.445 86.4115 151.143 87.0182 150.539 87.4766C149.935 87.9297 149.151 88.1562 148.188 88.1562C147.51 88.1562 146.911 88.0365 146.391 87.7969C145.87 87.5573 145.461 87.224 145.164 86.7969C144.872 86.3646 144.727 85.8984 144.727 85.3984H146.172C146.198 85.8828 146.391 86.2682 146.75 86.5547C147.115 86.8359 147.594 86.9766 148.188 86.9766C148.734 86.9766 149.172 86.8672 149.5 86.6484C149.833 86.4245 150 86.1276 150 85.7578ZM154.898 88H153.453V79.5469H154.898V88ZM153.336 77.3047C153.336 77.0703 153.406 76.8724 153.547 76.7109C153.693 76.5495 153.906 76.4688 154.188 76.4688C154.469 76.4688 154.682 76.5495 154.828 76.7109C154.974 76.8724 155.047 77.0703 155.047 77.3047C155.047 77.5391 154.974 77.7344 154.828 77.8906C154.682 78.0469 154.469 78.125 154.188 78.125C153.906 78.125 153.693 78.0469 153.547 77.8906C153.406 77.7344 153.336 77.5391 153.336 77.3047ZM156.875 83.7031C156.875 82.3854 157.18 81.3385 157.789 80.5625C158.398 79.7812 159.206 79.3906 160.211 79.3906C161.242 79.3906 162.047 79.7552 162.625 80.4844L162.695 79.5469H164.016V87.7969C164.016 88.8906 163.69 89.7526 163.039 90.3828C162.393 91.013 161.523 91.3281 160.43 91.3281C159.82 91.3281 159.224 91.1979 158.641 90.9375C158.057 90.6771 157.612 90.3203 157.305 89.8672L158.055 89C158.674 89.7656 159.432 90.1484 160.328 90.1484C161.031 90.1484 161.578 89.9505 161.969 89.5547C162.365 89.1589 162.562 88.6016 162.562 87.8828V87.1562C161.984 87.8229 161.195 88.1562 160.195 88.1562C159.206 88.1562 158.404 87.7578 157.789 86.9609C157.18 86.1641 156.875 85.0781 156.875 83.7031ZM158.328 83.8672C158.328 84.8203 158.523 85.5703 158.914 86.1172C159.305 86.6589 159.852 86.9297 160.555 86.9297C161.466 86.9297 162.135 86.5156 162.562 85.6875V81.8281C162.12 81.0208 161.456 80.6172 160.57 80.6172C159.867 80.6172 159.318 80.8906 158.922 81.4375C158.526 81.9844 158.328 82.7943 158.328 83.8672ZM167.57 79.5469L167.617 80.6094C168.263 79.7969 169.107 79.3906 170.148 79.3906C171.935 79.3906 172.836 80.3984 172.852 82.4141V88H171.406V82.4062C171.401 81.7969 171.26 81.3464 170.984 81.0547C170.714 80.763 170.289 80.6172 169.711 80.6172C169.242 80.6172 168.831 80.7422 168.477 80.9922C168.122 81.2422 167.846 81.5703 167.648 81.9766V88H166.203V79.5469H167.57Z" fill="black"/>
<path d="M107.047 127.609H108.133C108.815 127.599 109.352 127.419 109.742 127.07C110.133 126.721 110.328 126.25 110.328 125.656C110.328 124.323 109.664 123.656 108.336 123.656C107.711 123.656 107.211 123.836 106.836 124.195C106.466 124.549 106.281 125.021 106.281 125.609H104.836C104.836 124.708 105.164 123.961 105.82 123.367C106.482 122.768 107.32 122.469 108.336 122.469C109.409 122.469 110.25 122.753 110.859 123.32C111.469 123.888 111.773 124.677 111.773 125.688C111.773 126.182 111.612 126.661 111.289 127.125C110.971 127.589 110.536 127.935 109.984 128.164C110.609 128.362 111.091 128.69 111.43 129.148C111.773 129.607 111.945 130.167 111.945 130.828C111.945 131.849 111.612 132.659 110.945 133.258C110.279 133.857 109.411 134.156 108.344 134.156C107.276 134.156 106.406 133.867 105.734 133.289C105.068 132.711 104.734 131.948 104.734 131H106.188C106.188 131.599 106.383 132.078 106.773 132.438C107.164 132.797 107.688 132.977 108.344 132.977C109.042 132.977 109.576 132.794 109.945 132.43C110.315 132.065 110.5 131.542 110.5 130.859C110.5 130.198 110.297 129.69 109.891 129.336C109.484 128.982 108.898 128.799 108.133 128.789H107.047V127.609ZM114.305 134V122.625H117.516C118.505 122.625 119.38 122.844 120.141 123.281C120.901 123.719 121.487 124.341 121.898 125.148C122.315 125.956 122.526 126.883 122.531 127.93V128.656C122.531 129.729 122.323 130.669 121.906 131.477C121.495 132.284 120.904 132.904 120.133 133.336C119.367 133.768 118.474 133.99 117.453 134H114.305ZM115.805 123.859V132.773H117.383C118.539 132.773 119.438 132.414 120.078 131.695C120.724 130.977 121.047 129.953 121.047 128.625V127.961C121.047 126.669 120.742 125.667 120.133 124.953C119.529 124.234 118.669 123.87 117.555 123.859H115.805ZM130.711 122.625L134.43 131.906L138.148 122.625H140.094V134H138.594V129.57L138.734 124.789L135 134H133.852L130.125 124.812L130.273 129.57V134H128.773V122.625H130.711ZM142.133 129.695C142.133 128.867 142.294 128.122 142.617 127.461C142.945 126.799 143.398 126.289 143.977 125.93C144.56 125.57 145.224 125.391 145.969 125.391C147.12 125.391 148.049 125.789 148.758 126.586C149.471 127.383 149.828 128.443 149.828 129.766V129.867C149.828 130.69 149.669 131.43 149.352 132.086C149.039 132.737 148.589 133.245 148 133.609C147.417 133.974 146.745 134.156 145.984 134.156C144.839 134.156 143.909 133.758 143.195 132.961C142.487 132.164 142.133 131.109 142.133 129.797V129.695ZM143.586 129.867C143.586 130.805 143.802 131.557 144.234 132.125C144.672 132.693 145.255 132.977 145.984 132.977C146.719 132.977 147.302 132.69 147.734 132.117C148.167 131.539 148.383 130.732 148.383 129.695C148.383 128.768 148.161 128.018 147.719 127.445C147.281 126.867 146.698 126.578 145.969 126.578C145.255 126.578 144.68 126.862 144.242 127.43C143.805 127.997 143.586 128.81 143.586 129.867ZM151.289 129.703C151.289 128.406 151.596 127.365 152.211 126.578C152.826 125.786 153.63 125.391 154.625 125.391C155.615 125.391 156.398 125.729 156.977 126.406V122H158.422V134H157.094L157.023 133.094C156.445 133.802 155.641 134.156 154.609 134.156C153.63 134.156 152.831 133.755 152.211 132.953C151.596 132.151 151.289 131.104 151.289 129.812V129.703ZM152.734 129.867C152.734 130.826 152.932 131.576 153.328 132.117C153.724 132.659 154.271 132.93 154.969 132.93C155.885 132.93 156.555 132.518 156.977 131.695V127.812C156.544 127.016 155.88 126.617 154.984 126.617C154.276 126.617 153.724 126.891 153.328 127.438C152.932 127.984 152.734 128.794 152.734 129.867ZM164.18 134.156C163.034 134.156 162.102 133.781 161.383 133.031C160.664 132.276 160.305 131.268 160.305 130.008V129.742C160.305 128.904 160.464 128.156 160.781 127.5C161.104 126.839 161.552 126.323 162.125 125.953C162.703 125.578 163.328 125.391 164 125.391C165.099 125.391 165.953 125.753 166.562 126.477C167.172 127.201 167.477 128.237 167.477 129.586V130.188H161.75C161.771 131.021 162.013 131.695 162.477 132.211C162.945 132.721 163.539 132.977 164.258 132.977C164.768 132.977 165.201 132.872 165.555 132.664C165.909 132.456 166.219 132.18 166.484 131.836L167.367 132.523C166.659 133.612 165.596 134.156 164.18 134.156ZM164 126.578C163.417 126.578 162.927 126.792 162.531 127.219C162.135 127.641 161.891 128.234 161.797 129H166.031V128.891C165.99 128.156 165.792 127.589 165.438 127.188C165.083 126.781 164.604 126.578 164 126.578ZM170.727 134H169.281V122H170.727V134ZM174.617 134H173.172V125.547H174.617V134ZM173.055 123.305C173.055 123.07 173.125 122.872 173.266 122.711C173.411 122.549 173.625 122.469 173.906 122.469C174.188 122.469 174.401 122.549 174.547 122.711C174.693 122.872 174.766 123.07 174.766 123.305C174.766 123.539 174.693 123.734 174.547 123.891C174.401 124.047 174.188 124.125 173.906 124.125C173.625 124.125 173.411 124.047 173.266 123.891C173.125 123.734 173.055 123.539 173.055 123.305ZM178.305 125.547L178.352 126.609C178.997 125.797 179.841 125.391 180.883 125.391C182.669 125.391 183.57 126.398 183.586 128.414V134H182.141V128.406C182.135 127.797 181.995 127.346 181.719 127.055C181.448 126.763 181.023 126.617 180.445 126.617C179.977 126.617 179.565 126.742 179.211 126.992C178.857 127.242 178.581 127.57 178.383 127.977V134H176.938V125.547H178.305ZM185.422 129.703C185.422 128.385 185.727 127.339 186.336 126.562C186.945 125.781 187.753 125.391 188.758 125.391C189.789 125.391 190.594 125.755 191.172 126.484L191.242 125.547H192.562V133.797C192.562 134.891 192.237 135.753 191.586 136.383C190.94 137.013 190.07 137.328 188.977 137.328C188.367 137.328 187.771 137.198 187.188 136.938C186.604 136.677 186.159 136.32 185.852 135.867L186.602 135C187.221 135.766 187.979 136.148 188.875 136.148C189.578 136.148 190.125 135.951 190.516 135.555C190.911 135.159 191.109 134.602 191.109 133.883V133.156C190.531 133.823 189.742 134.156 188.742 134.156C187.753 134.156 186.951 133.758 186.336 132.961C185.727 132.164 185.422 131.078 185.422 129.703ZM186.875 129.867C186.875 130.82 187.07 131.57 187.461 132.117C187.852 132.659 188.398 132.93 189.102 132.93C190.013 132.93 190.682 132.516 191.109 131.688V127.828C190.667 127.021 190.003 126.617 189.117 126.617C188.414 126.617 187.865 126.891 187.469 127.438C187.073 127.984 186.875 128.794 186.875 129.867Z" fill="black"/>
<path d="M108.328 167.625V175.359C108.323 176.432 107.984 177.31 107.312 177.992C106.646 178.674 105.74 179.057 104.594 179.141L104.195 179.156C102.951 179.156 101.958 178.82 101.219 178.148C100.479 177.477 100.104 176.552 100.094 175.375V167.625H101.578V175.328C101.578 176.151 101.805 176.792 102.258 177.25C102.711 177.703 103.357 177.93 104.195 177.93C105.044 177.93 105.693 177.703 106.141 177.25C106.594 176.797 106.82 176.159 106.82 175.336V167.625H108.328ZM115.391 176.758C115.391 176.367 115.242 176.065 114.945 175.852C114.654 175.633 114.141 175.445 113.406 175.289C112.677 175.133 112.096 174.945 111.664 174.727C111.237 174.508 110.919 174.247 110.711 173.945C110.508 173.643 110.406 173.284 110.406 172.867C110.406 172.174 110.698 171.589 111.281 171.109C111.87 170.63 112.62 170.391 113.531 170.391C114.49 170.391 115.266 170.638 115.859 171.133C116.458 171.628 116.758 172.26 116.758 173.031H115.305C115.305 172.635 115.135 172.294 114.797 172.008C114.464 171.721 114.042 171.578 113.531 171.578C113.005 171.578 112.594 171.693 112.297 171.922C112 172.151 111.852 172.451 111.852 172.82C111.852 173.169 111.99 173.432 112.266 173.609C112.542 173.786 113.039 173.956 113.758 174.117C114.482 174.279 115.068 174.471 115.516 174.695C115.964 174.919 116.294 175.19 116.508 175.508C116.727 175.82 116.836 176.203 116.836 176.656C116.836 177.411 116.534 178.018 115.93 178.477C115.326 178.93 114.542 179.156 113.578 179.156C112.901 179.156 112.302 179.036 111.781 178.797C111.26 178.557 110.852 178.224 110.555 177.797C110.263 177.365 110.117 176.898 110.117 176.398H111.562C111.589 176.883 111.781 177.268 112.141 177.555C112.505 177.836 112.984 177.977 113.578 177.977C114.125 177.977 114.562 177.867 114.891 177.648C115.224 177.424 115.391 177.128 115.391 176.758ZM122.227 179.156C121.081 179.156 120.148 178.781 119.43 178.031C118.711 177.276 118.352 176.268 118.352 175.008V174.742C118.352 173.904 118.51 173.156 118.828 172.5C119.151 171.839 119.599 171.323 120.172 170.953C120.75 170.578 121.375 170.391 122.047 170.391C123.146 170.391 124 170.753 124.609 171.477C125.219 172.201 125.523 173.237 125.523 174.586V175.188H119.797C119.818 176.021 120.06 176.695 120.523 177.211C120.992 177.721 121.586 177.977 122.305 177.977C122.815 177.977 123.247 177.872 123.602 177.664C123.956 177.456 124.266 177.18 124.531 176.836L125.414 177.523C124.706 178.612 123.643 179.156 122.227 179.156ZM122.047 171.578C121.464 171.578 120.974 171.792 120.578 172.219C120.182 172.641 119.938 173.234 119.844 174H124.078V173.891C124.036 173.156 123.839 172.589 123.484 172.188C123.13 171.781 122.651 171.578 122.047 171.578ZM131.289 171.844C131.07 171.807 130.833 171.789 130.578 171.789C129.63 171.789 128.987 172.193 128.648 173V179H127.203V170.547H128.609L128.633 171.523C129.107 170.768 129.779 170.391 130.648 170.391C130.93 170.391 131.143 170.427 131.289 170.5V171.844ZM138.43 179H136.93V167.625H138.43V179ZM142.32 170.547L142.367 171.609C143.013 170.797 143.857 170.391 144.898 170.391C146.685 170.391 147.586 171.398 147.602 173.414V179H146.156V173.406C146.151 172.797 146.01 172.346 145.734 172.055C145.464 171.763 145.039 171.617 144.461 171.617C143.992 171.617 143.581 171.742 143.227 171.992C142.872 172.242 142.596 172.57 142.398 172.977V179H140.953V170.547H142.32ZM151.742 168.5V170.547H153.32V171.664H151.742V176.906C151.742 177.245 151.812 177.5 151.953 177.672C152.094 177.839 152.333 177.922 152.672 177.922C152.839 177.922 153.068 177.891 153.359 177.828V179C152.979 179.104 152.609 179.156 152.25 179.156C151.604 179.156 151.117 178.961 150.789 178.57C150.461 178.18 150.297 177.625 150.297 176.906V171.664H148.758V170.547H150.297V168.5H151.742ZM159.102 171.844C158.883 171.807 158.646 171.789 158.391 171.789C157.443 171.789 156.799 172.193 156.461 173V179H155.016V170.547H156.422L156.445 171.523C156.919 170.768 157.591 170.391 158.461 170.391C158.742 170.391 158.956 170.427 159.102 170.5V171.844ZM163.789 179.156C162.643 179.156 161.711 178.781 160.992 178.031C160.273 177.276 159.914 176.268 159.914 175.008V174.742C159.914 173.904 160.073 173.156 160.391 172.5C160.714 171.839 161.161 171.323 161.734 170.953C162.312 170.578 162.938 170.391 163.609 170.391C164.708 170.391 165.562 170.753 166.172 171.477C166.781 172.201 167.086 173.237 167.086 174.586V175.188H161.359C161.38 176.021 161.622 176.695 162.086 177.211C162.555 177.721 163.148 177.977 163.867 177.977C164.378 177.977 164.81 177.872 165.164 177.664C165.518 177.456 165.828 177.18 166.094 176.836L166.977 177.523C166.268 178.612 165.206 179.156 163.789 179.156ZM163.609 171.578C163.026 171.578 162.536 171.792 162.141 172.219C161.745 172.641 161.5 173.234 161.406 174H165.641V173.891C165.599 173.156 165.401 172.589 165.047 172.188C164.693 171.781 164.214 171.578 163.609 171.578ZM169.477 179V171.664H168.141V170.547H169.477V169.68C169.477 168.773 169.719 168.073 170.203 167.578C170.688 167.083 171.372 166.836 172.258 166.836C172.591 166.836 172.922 166.88 173.25 166.969L173.172 168.141C172.927 168.094 172.667 168.07 172.391 168.07C171.922 168.07 171.56 168.208 171.305 168.484C171.049 168.755 170.922 169.146 170.922 169.656V170.547H172.727V171.664H170.922V179H169.477ZM179.547 179C179.464 178.833 179.396 178.536 179.344 178.109C178.672 178.807 177.87 179.156 176.938 179.156C176.104 179.156 175.419 178.922 174.883 178.453C174.352 177.979 174.086 177.38 174.086 176.656C174.086 175.776 174.419 175.094 175.086 174.609C175.758 174.12 176.701 173.875 177.914 173.875H179.32V173.211C179.32 172.706 179.169 172.305 178.867 172.008C178.565 171.706 178.12 171.555 177.531 171.555C177.016 171.555 176.583 171.685 176.234 171.945C175.885 172.206 175.711 172.521 175.711 172.891H174.258C174.258 172.469 174.406 172.062 174.703 171.672C175.005 171.276 175.411 170.964 175.922 170.734C176.438 170.505 177.003 170.391 177.617 170.391C178.591 170.391 179.354 170.635 179.906 171.125C180.458 171.609 180.745 172.279 180.766 173.133V177.023C180.766 177.799 180.865 178.417 181.062 178.875V179H179.547ZM177.148 177.898C177.602 177.898 178.031 177.781 178.438 177.547C178.844 177.312 179.138 177.008 179.32 176.633V174.898H178.188C176.417 174.898 175.531 175.417 175.531 176.453C175.531 176.906 175.682 177.26 175.984 177.516C176.286 177.771 176.674 177.898 177.148 177.898ZM186.422 177.977C186.938 177.977 187.388 177.82 187.773 177.508C188.159 177.195 188.372 176.805 188.414 176.336H189.781C189.755 176.82 189.589 177.281 189.281 177.719C188.974 178.156 188.562 178.505 188.047 178.766C187.536 179.026 186.995 179.156 186.422 179.156C185.271 179.156 184.354 178.773 183.672 178.008C182.995 177.237 182.656 176.185 182.656 174.852V174.609C182.656 173.786 182.807 173.055 183.109 172.414C183.411 171.773 183.844 171.276 184.406 170.922C184.974 170.568 185.643 170.391 186.414 170.391C187.362 170.391 188.148 170.674 188.773 171.242C189.404 171.81 189.74 172.547 189.781 173.453H188.414C188.372 172.906 188.164 172.458 187.789 172.109C187.419 171.755 186.961 171.578 186.414 171.578C185.68 171.578 185.109 171.844 184.703 172.375C184.302 172.901 184.102 173.664 184.102 174.664V174.938C184.102 175.911 184.302 176.661 184.703 177.188C185.104 177.714 185.677 177.977 186.422 177.977ZM194.914 179.156C193.768 179.156 192.836 178.781 192.117 178.031C191.398 177.276 191.039 176.268 191.039 175.008V174.742C191.039 173.904 191.198 173.156 191.516 172.5C191.839 171.839 192.286 171.323 192.859 170.953C193.438 170.578 194.062 170.391 194.734 170.391C195.833 170.391 196.688 170.753 197.297 171.477C197.906 172.201 198.211 173.237 198.211 174.586V175.188H192.484C192.505 176.021 192.747 176.695 193.211 177.211C193.68 177.721 194.273 177.977 194.992 177.977C195.503 177.977 195.935 177.872 196.289 177.664C196.643 177.456 196.953 177.18 197.219 176.836L198.102 177.523C197.393 178.612 196.331 179.156 194.914 179.156ZM194.734 171.578C194.151 171.578 193.661 171.792 193.266 172.219C192.87 172.641 192.625 173.234 192.531 174H196.766V173.891C196.724 173.156 196.526 172.589 196.172 172.188C195.818 171.781 195.339 171.578 194.734 171.578Z" fill="black"/>
<path d="M113.448 244H105.063V242.831L109.493 237.909C110.149 237.165 110.601 236.562 110.847 236.099C111.099 235.63 111.225 235.146 111.225 234.648C111.225 233.98 111.022 233.433 110.618 233.005C110.214 232.577 109.675 232.363 109.001 232.363C108.192 232.363 107.562 232.595 107.111 233.058C106.666 233.515 106.443 234.153 106.443 234.974H104.817C104.817 233.796 105.195 232.844 105.951 232.117C106.713 231.391 107.729 231.027 109.001 231.027C110.19 231.027 111.131 231.341 111.822 231.968C112.514 232.589 112.859 233.418 112.859 234.455C112.859 235.715 112.057 237.215 110.451 238.955L107.023 242.673H113.448V244ZM125.175 238.542C125.175 240.446 124.85 241.861 124.2 242.787C123.549 243.713 122.533 244.176 121.15 244.176C119.785 244.176 118.774 243.725 118.118 242.822C117.461 241.914 117.122 240.561 117.098 238.762V236.591C117.098 234.71 117.423 233.312 118.074 232.398C118.724 231.484 119.744 231.027 121.132 231.027C122.509 231.027 123.523 231.47 124.173 232.354C124.824 233.233 125.158 234.593 125.175 236.433V238.542ZM123.549 236.318C123.549 234.941 123.356 233.939 122.969 233.312C122.583 232.68 121.97 232.363 121.132 232.363C120.3 232.363 119.694 232.677 119.313 233.304C118.932 233.931 118.736 234.895 118.724 236.195V238.797C118.724 240.18 118.923 241.202 119.322 241.864C119.726 242.521 120.335 242.849 121.15 242.849C121.953 242.849 122.547 242.538 122.934 241.917C123.327 241.296 123.532 240.317 123.549 238.981V236.318ZM135.698 240.704C135.698 240.165 135.508 239.711 135.127 239.342C134.752 238.973 134.116 238.639 133.22 238.34C131.972 237.959 131.061 237.464 130.486 236.854C129.918 236.239 129.634 235.46 129.634 234.517C129.634 233.556 129.912 232.768 130.469 232.152C131.031 231.537 131.802 231.171 132.78 231.054V229.129H134.09V231.062C135.074 231.197 135.839 231.61 136.384 232.302C136.935 232.993 137.21 233.939 137.21 235.141H135.593C135.593 234.314 135.397 233.658 135.004 233.172C134.611 232.686 134.081 232.442 133.413 232.442C132.716 232.442 132.183 232.624 131.814 232.987C131.444 233.345 131.26 233.846 131.26 234.49C131.26 235.088 131.453 235.565 131.84 235.923C132.232 236.274 132.874 236.597 133.765 236.89C134.661 237.177 135.358 237.496 135.856 237.848C136.36 238.193 136.73 238.598 136.964 239.061C137.204 239.523 137.324 240.065 137.324 240.687C137.324 241.677 137.025 242.474 136.428 243.077C135.836 243.681 135.004 244.038 133.932 244.149V245.828H132.631V244.149C131.541 244.05 130.686 243.663 130.064 242.989C129.449 242.31 129.142 241.39 129.142 240.229H130.768C130.768 241.044 130.981 241.671 131.409 242.11C131.837 242.55 132.443 242.77 133.229 242.77C133.996 242.77 134.6 242.585 135.039 242.216C135.479 241.847 135.698 241.343 135.698 240.704ZM144.877 239.228H140.587V237.9H144.877V239.228ZM150.645 236.811H151.866C152.634 236.799 153.237 236.597 153.677 236.204C154.116 235.812 154.336 235.281 154.336 234.613C154.336 233.113 153.589 232.363 152.095 232.363C151.392 232.363 150.829 232.565 150.407 232.97C149.991 233.368 149.783 233.898 149.783 234.561H148.157C148.157 233.547 148.526 232.706 149.265 232.038C150.009 231.364 150.952 231.027 152.095 231.027C153.302 231.027 154.248 231.347 154.934 231.985C155.619 232.624 155.962 233.512 155.962 234.648C155.962 235.205 155.78 235.744 155.417 236.266C155.06 236.787 154.57 237.177 153.949 237.435C154.652 237.657 155.194 238.026 155.575 238.542C155.962 239.058 156.155 239.688 156.155 240.432C156.155 241.58 155.78 242.491 155.03 243.165C154.28 243.839 153.305 244.176 152.104 244.176C150.902 244.176 149.924 243.851 149.168 243.2C148.418 242.55 148.043 241.691 148.043 240.625H149.678C149.678 241.299 149.898 241.838 150.337 242.242C150.776 242.646 151.365 242.849 152.104 242.849C152.889 242.849 153.489 242.644 153.905 242.233C154.321 241.823 154.529 241.234 154.529 240.467C154.529 239.723 154.301 239.151 153.844 238.753C153.387 238.354 152.728 238.149 151.866 238.138H150.645V236.811ZM168.392 238.542C168.392 240.446 168.067 241.861 167.417 242.787C166.766 243.713 165.75 244.176 164.367 244.176C163.002 244.176 161.991 243.725 161.335 242.822C160.678 241.914 160.338 240.561 160.315 238.762V236.591C160.315 234.71 160.64 233.312 161.291 232.398C161.941 231.484 162.961 231.027 164.349 231.027C165.726 231.027 166.74 231.47 167.39 232.354C168.041 233.233 168.375 234.593 168.392 236.433V238.542ZM166.766 236.318C166.766 234.941 166.573 233.939 166.186 233.312C165.799 232.68 165.187 232.363 164.349 232.363C163.517 232.363 162.911 232.677 162.53 233.304C162.149 233.931 161.953 234.895 161.941 236.195V238.797C161.941 240.18 162.14 241.202 162.539 241.864C162.943 242.521 163.552 242.849 164.367 242.849C165.17 242.849 165.764 242.538 166.151 241.917C166.544 241.296 166.749 240.317 166.766 238.981V236.318ZM180.48 238.542C180.48 240.446 180.154 241.861 179.504 242.787C178.854 243.713 177.837 244.176 176.454 244.176C175.089 244.176 174.078 243.725 173.422 242.822C172.766 241.914 172.426 240.561 172.402 238.762V236.591C172.402 234.71 172.728 233.312 173.378 232.398C174.028 231.484 175.048 231.027 176.437 231.027C177.814 231.027 178.827 231.47 179.478 232.354C180.128 233.233 180.462 234.593 180.48 236.433V238.542ZM178.854 236.318C178.854 234.941 178.66 233.939 178.274 233.312C177.887 232.68 177.275 232.363 176.437 232.363C175.605 232.363 174.998 232.677 174.617 233.304C174.236 233.931 174.04 234.895 174.028 236.195V238.797C174.028 240.18 174.228 241.202 174.626 241.864C175.03 242.521 175.64 242.849 176.454 242.849C177.257 242.849 177.852 242.538 178.238 241.917C178.631 241.296 178.836 240.317 178.854 238.981V236.318ZM191.003 240.704C191.003 240.165 190.812 239.711 190.431 239.342C190.056 238.973 189.421 238.639 188.524 238.34C187.276 237.959 186.365 237.464 185.791 236.854C185.222 236.239 184.938 235.46 184.938 234.517C184.938 233.556 185.216 232.768 185.773 232.152C186.336 231.537 187.106 231.171 188.085 231.054V229.129H189.394V231.062C190.379 231.197 191.143 231.61 191.688 232.302C192.239 232.993 192.514 233.939 192.514 235.141H190.897C190.897 234.314 190.701 233.658 190.308 233.172C189.916 232.686 189.385 232.442 188.717 232.442C188.02 232.442 187.487 232.624 187.118 232.987C186.749 233.345 186.564 233.846 186.564 234.49C186.564 235.088 186.757 235.565 187.144 235.923C187.537 236.274 188.178 236.597 189.069 236.89C189.965 237.177 190.663 237.496 191.161 237.848C191.665 238.193 192.034 238.598 192.268 239.061C192.508 239.523 192.629 240.065 192.629 240.687C192.629 241.677 192.33 242.474 191.732 243.077C191.14 243.681 190.308 244.038 189.236 244.149V245.828H187.935V244.149C186.845 244.05 185.99 243.663 185.369 242.989C184.754 242.31 184.446 241.39 184.446 240.229H186.072C186.072 241.044 186.286 241.671 186.714 242.11C187.141 242.55 187.748 242.77 188.533 242.77C189.3 242.77 189.904 242.585 190.343 242.216C190.783 241.847 191.003 241.343 191.003 240.704Z" fill="#2099EA"/>
<rect x="50.5" y="211.5" width="197" height="52" rx="6.5" stroke="#8F8F8F" stroke-width="3"/>
<line y1="0.5" x2="298" y2="0.5" stroke="black" stroke-dasharray="1 1"/>
</svg>
