<svg width="326" height="101" viewBox="0 0 326 101" fill="none" xmlns="http://www.w3.org/2000/svg">
<path fill-rule="evenodd" clip-rule="evenodd" d="M326 0H0V86.154H308.049L325.5 100.295L325.95 86.154H326V0Z" fill="#2099EA"/>
<path d="M55.9277 51.041H46.0137L43.9395 57H39.3164L48.9844 31.4062H52.9746L62.6602 57H58.0195L55.9277 51.041ZM47.2617 47.4551H54.6797L50.9707 36.8379L47.2617 47.4551ZM82.3209 34.9922H74.3405V57H69.9284V34.9922H62.0182V31.4062H82.3209V34.9922ZM104.829 34.9922H96.8489V57H92.4368V34.9922H84.5266V31.4062H104.829V34.9922ZM120.781 51.041H110.867L108.793 57H104.17L113.838 31.4062H117.828L127.514 57H122.873L120.781 51.041ZM112.115 47.4551H119.533L115.824 36.8379L112.115 47.4551ZM135.485 57H131.055V31.4062H135.485V57ZM161.614 57H157.167L145.759 38.8418V57H141.312V31.4062H145.759L157.202 49.6348V31.4062H161.614V57ZM172.996 31.4062L180.379 51.0234L187.744 31.4062H193.492V57H189.062V48.5625L189.502 37.2773L181.943 57H178.762L171.221 37.2949L171.66 48.5625V57H167.23V31.4062H172.996ZM214.084 45.5742H203.573V53.4492H215.86V57H199.125V31.4062H215.737V34.9922H203.573V42.0586H214.084V45.5742ZM240.144 57H235.696L224.288 38.8418V57H219.841V31.4062H224.288L235.732 49.6348V31.4062H240.144V57ZM263.724 34.9922H255.744V57H251.332V34.9922H243.422V31.4062H263.724V34.9922ZM280.555 50.4082C280.555 49.2832 280.157 48.416 279.36 47.8066C278.575 47.1973 277.151 46.582 275.088 45.9609C273.026 45.3398 271.385 44.6484 270.166 43.8867C267.834 42.4219 266.668 40.5117 266.668 38.1562C266.668 36.0938 267.506 34.3945 269.182 33.0586C270.87 31.7227 273.055 31.0547 275.739 31.0547C277.52 31.0547 279.108 31.3828 280.502 32.0391C281.897 32.6953 282.993 33.6328 283.789 34.8516C284.586 36.0586 284.985 37.4004 284.985 38.877H280.555C280.555 37.541 280.133 36.498 279.289 35.748C278.457 34.9863 277.262 34.6055 275.704 34.6055C274.25 34.6055 273.12 34.916 272.311 35.5371C271.514 36.1582 271.116 37.0254 271.116 38.1387C271.116 39.0762 271.549 39.8613 272.416 40.4941C273.284 41.1152 274.713 41.7246 276.705 42.3223C278.698 42.9082 280.297 43.582 281.504 44.3438C282.711 45.0938 283.596 45.9609 284.159 46.9453C284.721 47.918 285.002 49.0605 285.002 50.373C285.002 52.5059 284.182 54.2051 282.541 55.4707C280.913 56.7246 278.698 57.3516 275.897 57.3516C274.045 57.3516 272.34 57.0117 270.782 56.332C269.235 55.6406 268.028 54.6914 267.161 53.4844C266.305 52.2773 265.877 50.8711 265.877 49.2656H270.325C270.325 50.7188 270.805 51.8438 271.766 52.6406C272.727 53.4375 274.104 53.8359 275.897 53.8359C277.444 53.8359 278.604 53.5254 279.377 52.9043C280.163 52.2715 280.555 51.4395 280.555 50.4082Z" fill="black"/>
</svg>
