<svg width="763" height="153" viewBox="0 0 763 153" fill="none" xmlns="http://www.w3.org/2000/svg">
<path fill-rule="evenodd" clip-rule="evenodd" d="M263 1H0V145H262.5H263L305 145L263 102.859V1Z" fill="#2099EA"/>
<path d="M97.1348 58.1973C97.1348 57.2949 96.8125 56.5918 96.168 56.0879C95.5352 55.584 94.416 55.0625 92.8105 54.5234C91.2051 53.9844 89.8926 53.4629 88.873 52.959C85.5566 51.3301 83.8984 49.0918 83.8984 46.2441C83.8984 44.8262 84.3086 43.5781 85.1289 42.5C85.9609 41.4102 87.1328 40.5664 88.6445 39.9688C90.1562 39.3594 91.8555 39.0547 93.7422 39.0547C95.582 39.0547 97.2285 39.3828 98.6816 40.0391C100.146 40.6953 101.283 41.6328 102.092 42.8516C102.9 44.0586 103.305 45.4414 103.305 47H97.1523C97.1523 45.957 96.8301 45.1484 96.1855 44.5742C95.5527 44 94.6914 43.7129 93.6016 43.7129C92.5 43.7129 91.627 43.959 90.9824 44.4512C90.3496 44.9316 90.0332 45.5469 90.0332 46.2969C90.0332 46.9531 90.3848 47.5508 91.0879 48.0898C91.791 48.6172 93.0273 49.168 94.7969 49.7422C96.5664 50.3047 98.0195 50.9141 99.1562 51.5703C101.922 53.1641 103.305 55.3613 103.305 58.1621C103.305 60.4004 102.461 62.1582 100.773 63.4355C99.0859 64.7129 96.7715 65.3516 93.8301 65.3516C91.7559 65.3516 89.875 64.9824 88.1875 64.2441C86.5117 63.4941 85.2461 62.4746 84.3906 61.1855C83.5469 59.8848 83.125 58.3906 83.125 56.7031H89.3125C89.3125 58.0742 89.6641 59.0879 90.3672 59.7441C91.082 60.3887 92.2363 60.7109 93.8301 60.7109C94.8496 60.7109 95.6523 60.4941 96.2383 60.0605C96.8359 59.6152 97.1348 58.9941 97.1348 58.1973ZM128.143 52.7305C128.143 55.2266 127.68 57.4355 126.754 59.3574C125.828 61.2793 124.51 62.7617 122.799 63.8047C121.1 64.8359 119.16 65.3516 116.98 65.3516C114.801 65.3516 112.867 64.8535 111.18 63.8574C109.492 62.8496 108.174 61.4141 107.225 59.5508C106.287 57.6875 105.795 55.5488 105.748 53.1348V51.6934C105.748 49.1855 106.205 46.9766 107.119 45.0664C108.045 43.1445 109.363 41.6621 111.074 40.6191C112.797 39.5762 114.754 39.0547 116.945 39.0547C119.113 39.0547 121.047 39.5703 122.746 40.6016C124.445 41.6328 125.764 43.1035 126.701 45.0137C127.65 46.9121 128.131 49.0918 128.143 51.5527V52.7305ZM121.867 51.6582C121.867 49.1152 121.439 47.1875 120.584 45.875C119.74 44.5508 118.527 43.8887 116.945 43.8887C113.852 43.8887 112.217 46.209 112.041 50.8496L112.023 52.7305C112.023 55.2383 112.439 57.166 113.271 58.5137C114.104 59.8613 115.34 60.5352 116.98 60.5352C118.539 60.5352 119.74 59.873 120.584 58.5488C121.428 57.2246 121.855 55.3203 121.867 52.8359V51.6582ZM139.428 39.4062L145.141 57.2129L150.836 39.4062H158.957V65H152.77V59.0234L153.367 46.7891L147.18 65H143.102L136.896 46.7715L137.494 59.0234V65H131.324V39.4062H139.428ZM178.768 54.1543H169.064V60.2539H180.525V65H162.895V39.4062H180.561V44.1699H169.064V49.5664H178.768V54.1543ZM100.053 94.8047H90.1035V105H83.9336V79.4062H101.055V84.1699H90.1035V90.0586H100.053V94.8047ZM114.783 100.219H106.328L104.852 105H98.2598L107.646 79.4062H113.447L122.904 105H116.277L114.783 100.219ZM107.805 95.4551H113.307L110.547 86.5781L107.805 95.4551ZM145.105 96.334C145.023 98.1152 144.543 99.6914 143.664 101.062C142.785 102.422 141.549 103.477 139.955 104.227C138.373 104.977 136.562 105.352 134.523 105.352C131.16 105.352 128.512 104.256 126.578 102.064C124.645 99.873 123.678 96.7793 123.678 92.7832V91.5176C123.678 89.0098 124.111 86.8184 124.979 84.9434C125.857 83.0566 127.117 81.6035 128.758 80.584C130.398 79.5527 132.297 79.0371 134.453 79.0371C137.559 79.0371 140.055 79.8574 141.941 81.498C143.828 83.127 144.9 85.377 145.158 88.248H139.006C138.959 86.6895 138.566 85.5703 137.828 84.8906C137.09 84.2109 135.965 83.8711 134.453 83.8711C132.918 83.8711 131.793 84.4453 131.078 85.5938C130.363 86.7422 129.988 88.5762 129.953 91.0957V92.9062C129.953 95.6367 130.293 97.5879 130.973 98.7598C131.664 99.9316 132.848 100.518 134.523 100.518C135.941 100.518 137.025 100.184 137.775 99.5156C138.525 98.8477 138.924 97.7871 138.971 96.334H145.105ZM167.588 84.1699H159.906V105H153.736V84.1699H146.195V79.4062H167.588V84.1699ZM183.127 98.1973C183.127 97.2949 182.805 96.5918 182.16 96.0879C181.527 95.584 180.408 95.0625 178.803 94.5234C177.197 93.9844 175.885 93.4629 174.865 92.959C171.549 91.3301 169.891 89.0918 169.891 86.2441C169.891 84.8262 170.301 83.5781 171.121 82.5C171.953 81.4102 173.125 80.5664 174.637 79.9688C176.148 79.3594 177.848 79.0547 179.734 79.0547C181.574 79.0547 183.221 79.3828 184.674 80.0391C186.139 80.6953 187.275 81.6328 188.084 82.8516C188.893 84.0586 189.297 85.4414 189.297 87H183.145C183.145 85.957 182.822 85.1484 182.178 84.5742C181.545 84 180.684 83.7129 179.594 83.7129C178.492 83.7129 177.619 83.959 176.975 84.4512C176.342 84.9316 176.025 85.5469 176.025 86.2969C176.025 86.9531 176.377 87.5508 177.08 88.0898C177.783 88.6172 179.02 89.168 180.789 89.7422C182.559 90.3047 184.012 90.9141 185.148 91.5703C187.914 93.1641 189.297 95.3613 189.297 98.1621C189.297 100.4 188.453 102.158 186.766 103.436C185.078 104.713 182.764 105.352 179.822 105.352C177.748 105.352 175.867 104.982 174.18 104.244C172.504 103.494 171.238 102.475 170.383 101.186C169.539 99.8848 169.117 98.3906 169.117 96.7031H175.305C175.305 98.0742 175.656 99.0879 176.359 99.7441C177.074 100.389 178.229 100.711 179.822 100.711C180.842 100.711 181.645 100.494 182.23 100.061C182.828 99.6152 183.127 98.9941 183.127 98.1973Z" fill="black"/>
<path d="M394.351 89H376.196V31.207L358.364 36.417V22.667L392.686 10.7969H394.351V89ZM472.231 57.042C472.231 67.6051 469.85 75.7513 465.088 81.4805C460.361 87.2096 453.683 90.0742 445.054 90.0742C436.353 90.0742 429.621 87.1917 424.858 81.4268C420.096 75.6618 417.715 67.5335 417.715 57.042V42.7549C417.715 32.1917 420.078 24.0456 424.805 18.3164C429.567 12.5872 436.281 9.72266 444.946 9.72266C453.612 9.72266 460.326 12.6051 465.088 18.3701C469.85 24.1351 472.231 32.2812 472.231 42.8086V57.042ZM454.131 40.4453C454.131 34.8236 453.397 30.6341 451.929 27.877C450.461 25.084 448.133 23.6875 444.946 23.6875C441.831 23.6875 439.557 24.9766 438.125 27.5547C436.729 30.1328 435.977 34.0358 435.869 39.2637V59.2441C435.869 65.0807 436.603 69.3597 438.071 72.0811C439.539 74.7666 441.867 76.1094 445.054 76.1094C448.133 76.1094 450.407 74.8024 451.875 72.1885C453.343 69.5387 454.095 65.403 454.131 59.7812V40.4453ZM535.933 57.042C535.933 67.6051 533.551 75.7513 528.789 81.4805C524.062 87.2096 517.384 90.0742 508.755 90.0742C500.054 90.0742 493.322 87.1917 488.56 81.4268C483.797 75.6618 481.416 67.5335 481.416 57.042V42.7549C481.416 32.1917 483.779 24.0456 488.506 18.3164C493.268 12.5872 499.982 9.72266 508.647 9.72266C517.313 9.72266 524.027 12.6051 528.789 18.3701C533.551 24.1351 535.933 32.2812 535.933 42.8086V57.042ZM517.832 40.4453C517.832 34.8236 517.098 30.6341 515.63 27.877C514.162 25.084 511.834 23.6875 508.647 23.6875C505.532 23.6875 503.258 24.9766 501.826 27.5547C500.43 30.1328 499.678 34.0358 499.57 39.2637V59.2441C499.57 65.0807 500.304 69.3597 501.772 72.0811C503.241 74.7666 505.568 76.1094 508.755 76.1094C511.834 76.1094 514.108 74.8024 515.576 72.1885C517.044 69.5387 517.796 65.403 517.832 59.7812V40.4453ZM362.608 145.349H357.238V151H355.551V138.203H363.478V139.592H357.238V143.969H362.608V145.349ZM368.03 151H366.343V138.203H368.03V151ZM381.679 151H379.983L373.54 141.139V151H371.844V138.203H373.54L380 148.108V138.203H381.679V151ZM387.207 151H385.519V138.203H387.207V151ZM394.791 145.296C393.344 144.88 392.289 144.37 391.627 143.767C390.971 143.157 390.642 142.407 390.642 141.517C390.642 140.509 391.044 139.677 391.847 139.021C392.655 138.358 393.704 138.027 394.993 138.027C395.872 138.027 396.654 138.197 397.34 138.537C398.031 138.877 398.564 139.346 398.939 139.943C399.32 140.541 399.511 141.194 399.511 141.903H397.814C397.814 141.13 397.568 140.523 397.076 140.084C396.584 139.639 395.89 139.416 394.993 139.416C394.161 139.416 393.511 139.601 393.042 139.97C392.579 140.333 392.348 140.84 392.348 141.49C392.348 142.012 392.567 142.454 393.007 142.817C393.452 143.175 394.205 143.503 395.266 143.802C396.332 144.101 397.164 144.432 397.762 144.795C398.365 145.152 398.81 145.571 399.098 146.052C399.391 146.532 399.537 147.098 399.537 147.748C399.537 148.785 399.133 149.617 398.324 150.244C397.516 150.865 396.434 151.176 395.081 151.176C394.202 151.176 393.382 151.009 392.62 150.675C391.858 150.335 391.269 149.872 390.853 149.286C390.443 148.7 390.238 148.035 390.238 147.291H391.934C391.934 148.064 392.219 148.677 392.787 149.128C393.361 149.573 394.126 149.796 395.081 149.796C395.972 149.796 396.654 149.614 397.129 149.251C397.603 148.888 397.841 148.393 397.841 147.766C397.841 147.139 397.621 146.655 397.182 146.315C396.742 145.97 395.945 145.63 394.791 145.296ZM412.263 151H410.567V145.085H404.115V151H402.428V138.203H404.115V143.705H410.567V138.203H412.263V151ZM423.213 145.085H417.667V149.62H424.11V151H415.98V138.203H424.022V139.592H417.667V143.705H423.213V145.085ZM426.93 151V138.203H430.543C431.656 138.203 432.64 138.449 433.496 138.941C434.351 139.434 435.01 140.134 435.473 141.042C435.942 141.95 436.179 142.993 436.185 144.171V144.988C436.185 146.195 435.951 147.253 435.482 148.161C435.019 149.069 434.354 149.767 433.487 150.253C432.626 150.739 431.621 150.988 430.472 151H426.93ZM428.618 139.592V149.62H430.393C431.694 149.62 432.705 149.216 433.426 148.407C434.152 147.599 434.515 146.447 434.515 144.953V144.206C434.515 142.753 434.173 141.625 433.487 140.822C432.807 140.014 431.841 139.604 430.587 139.592H428.618ZM446.335 145.99V151H444.648V138.203H449.367C450.768 138.203 451.864 138.561 452.655 139.275C453.451 139.99 453.85 140.937 453.85 142.114C453.85 143.356 453.46 144.314 452.681 144.988C451.908 145.656 450.797 145.99 449.35 145.99H446.335ZM446.335 144.61H449.367C450.27 144.61 450.961 144.399 451.442 143.978C451.922 143.55 452.162 142.935 452.162 142.132C452.162 141.37 451.922 140.761 451.442 140.304C450.961 139.847 450.302 139.609 449.464 139.592H446.335V144.61ZM461.417 145.823H458.411V151H456.714V138.203H460.951C462.392 138.203 463.5 138.531 464.273 139.188C465.052 139.844 465.442 140.799 465.442 142.053C465.442 142.85 465.225 143.544 464.792 144.136C464.364 144.728 463.766 145.17 462.999 145.463L466.004 150.895V151H464.194L461.417 145.823ZM458.411 144.443H461.003C461.841 144.443 462.506 144.227 462.999 143.793C463.497 143.359 463.746 142.779 463.746 142.053C463.746 141.262 463.508 140.655 463.034 140.233C462.565 139.812 461.885 139.598 460.995 139.592H458.411V144.443ZM478.379 145.015C478.379 146.269 478.168 147.364 477.746 148.302C477.324 149.233 476.726 149.945 475.953 150.438C475.18 150.93 474.277 151.176 473.246 151.176C472.238 151.176 471.345 150.93 470.565 150.438C469.786 149.939 469.18 149.233 468.746 148.319C468.318 147.399 468.098 146.336 468.087 145.129V144.206C468.087 142.976 468.301 141.889 468.728 140.945C469.156 140.002 469.76 139.281 470.539 138.783C471.324 138.279 472.221 138.027 473.228 138.027C474.254 138.027 475.156 138.276 475.935 138.774C476.721 139.267 477.324 139.984 477.746 140.928C478.168 141.865 478.379 142.958 478.379 144.206V145.015ZM476.7 144.188C476.7 142.671 476.395 141.508 475.786 140.699C475.177 139.885 474.324 139.478 473.228 139.478C472.162 139.478 471.321 139.885 470.706 140.699C470.097 141.508 469.783 142.633 469.765 144.074V145.015C469.765 146.485 470.073 147.643 470.688 148.486C471.309 149.324 472.162 149.743 473.246 149.743C474.336 149.743 475.18 149.348 475.777 148.557C476.375 147.76 476.682 146.62 476.7 145.138V144.188ZM486.991 138.203H488.688V147.265C488.688 148.489 488.318 149.447 487.58 150.139C486.848 150.83 485.869 151.176 484.645 151.176C483.373 151.176 482.383 150.851 481.674 150.2C480.965 149.55 480.61 148.639 480.61 147.467H482.298C482.298 148.199 482.497 148.771 482.896 149.181C483.3 149.591 483.883 149.796 484.645 149.796C485.342 149.796 485.904 149.576 486.332 149.137C486.766 148.697 486.985 148.082 486.991 147.291V138.203ZM499.515 145.085H493.969V149.62H500.412V151H492.282V138.203H500.324V139.592H493.969V143.705H499.515V145.085ZM512.645 146.939C512.487 148.293 511.986 149.339 511.142 150.077C510.304 150.81 509.188 151.176 507.794 151.176C506.282 151.176 505.069 150.634 504.155 149.55C503.247 148.466 502.793 147.016 502.793 145.199V143.969C502.793 142.779 503.004 141.733 503.425 140.831C503.853 139.929 504.457 139.237 505.236 138.757C506.015 138.271 506.918 138.027 507.943 138.027C509.302 138.027 510.392 138.408 511.213 139.17C512.033 139.926 512.51 140.975 512.645 142.316H510.949C510.802 141.297 510.483 140.559 509.991 140.102C509.505 139.645 508.822 139.416 507.943 139.416C506.865 139.416 506.018 139.814 505.403 140.611C504.794 141.408 504.489 142.542 504.489 144.013V145.252C504.489 146.641 504.779 147.745 505.359 148.565C505.939 149.386 506.751 149.796 507.794 149.796C508.731 149.796 509.449 149.585 509.947 149.163C510.451 148.735 510.785 147.994 510.949 146.939H512.645ZM524.255 139.592H520.142V151H518.463V139.592H514.358V138.203H524.255V139.592ZM530.503 145.296C529.056 144.88 528.001 144.37 527.339 143.767C526.683 143.157 526.355 142.407 526.355 141.517C526.355 140.509 526.756 139.677 527.559 139.021C528.367 138.358 529.416 138.027 530.705 138.027C531.584 138.027 532.366 138.197 533.052 138.537C533.743 138.877 534.277 139.346 534.652 139.943C535.032 140.541 535.223 141.194 535.223 141.903H533.527C533.527 141.13 533.281 140.523 532.788 140.084C532.296 139.639 531.602 139.416 530.705 139.416C529.873 139.416 529.223 139.601 528.754 139.97C528.291 140.333 528.06 140.84 528.06 141.49C528.06 142.012 528.28 142.454 528.719 142.817C529.164 143.175 529.917 143.503 530.978 143.802C532.044 144.101 532.876 144.432 533.474 144.795C534.077 145.152 534.523 145.571 534.81 146.052C535.103 146.532 535.249 147.098 535.249 147.748C535.249 148.785 534.845 149.617 534.036 150.244C533.228 150.865 532.147 151.176 530.793 151.176C529.914 151.176 529.094 151.009 528.332 150.675C527.571 150.335 526.982 149.872 526.566 149.286C526.156 148.7 525.95 148.035 525.95 147.291H527.647C527.647 148.064 527.931 148.677 528.499 149.128C529.073 149.573 529.838 149.796 530.793 149.796C531.684 149.796 532.366 149.614 532.841 149.251C533.316 148.888 533.553 148.393 533.553 147.766C533.553 147.139 533.333 146.655 532.894 146.315C532.454 145.97 531.657 145.63 530.503 145.296Z" fill="black"/>
<path d="M627.955 88H611.451V35.4609L595.24 40.1973V27.6973L626.441 16.9062H627.955V88ZM698.756 58.9473C698.756 68.5501 696.591 75.9557 692.262 81.1641C687.965 86.3724 681.894 88.9766 674.049 88.9766C666.139 88.9766 660.019 86.3561 655.689 81.1152C651.36 75.8743 649.195 68.485 649.195 58.9473V45.959C649.195 36.3561 651.344 28.9505 655.641 23.7422C659.97 18.5339 666.074 15.9297 673.951 15.9297C681.829 15.9297 687.932 18.5501 692.262 23.791C696.591 29.0319 698.756 36.4375 698.756 46.0078V58.9473ZM682.301 43.8594C682.301 38.7487 681.633 34.9401 680.299 32.4336C678.964 29.8945 676.848 28.625 673.951 28.625C671.119 28.625 669.052 29.7969 667.75 32.1406C666.48 34.4844 665.797 38.0326 665.699 42.7852V60.9492C665.699 66.2552 666.367 70.1452 667.701 72.6191C669.036 75.0605 671.152 76.2812 674.049 76.2812C676.848 76.2812 678.915 75.0931 680.25 72.7168C681.585 70.3079 682.268 66.5482 682.301 61.4375V43.8594ZM756.666 58.9473C756.666 68.5501 754.501 75.9557 750.172 81.1641C745.875 86.3724 739.804 88.9766 731.959 88.9766C724.049 88.9766 717.929 86.3561 713.6 81.1152C709.27 75.8743 707.105 68.485 707.105 58.9473V45.959C707.105 36.3561 709.254 28.9505 713.551 23.7422C717.88 18.5339 723.984 15.9297 731.861 15.9297C739.739 15.9297 745.842 18.5501 750.172 23.791C754.501 29.0319 756.666 36.4375 756.666 46.0078V58.9473ZM740.211 43.8594C740.211 38.7487 739.544 34.9401 738.209 32.4336C736.874 29.8945 734.758 28.625 731.861 28.625C729.029 28.625 726.962 29.7969 725.66 32.1406C724.391 34.4844 723.707 38.0326 723.609 42.7852V60.9492C723.609 66.2552 724.277 70.1452 725.611 72.6191C726.946 75.0605 729.062 76.2812 731.959 76.2812C734.758 76.2812 736.826 75.0931 738.16 72.7168C739.495 70.3079 740.178 66.5482 740.211 61.4375V43.8594ZM596.582 150H594.886V144.085H588.435V150H586.747V137.203H588.435V142.705H594.886V137.203H596.582V150ZM607.524 146.66H602.162L600.958 150H599.218L604.105 137.203H605.581L610.477 150H608.745L607.524 146.66ZM602.672 145.271H607.023L604.843 139.286L602.672 145.271ZM614.607 144.99V150H612.92V137.203H617.639C619.04 137.203 620.135 137.561 620.926 138.275C621.723 138.99 622.122 139.937 622.122 141.114C622.122 142.356 621.732 143.314 620.953 143.988C620.179 144.656 619.069 144.99 617.622 144.99H614.607ZM614.607 143.61H617.639C618.542 143.61 619.233 143.399 619.713 142.978C620.194 142.55 620.434 141.935 620.434 141.132C620.434 140.37 620.194 139.761 619.713 139.304C619.233 138.847 618.574 138.609 617.736 138.592H614.607V143.61ZM626.682 144.99V150H624.995V137.203H629.715C631.115 137.203 632.211 137.561 633.002 138.275C633.799 138.99 634.197 139.937 634.197 141.114C634.197 142.356 633.807 143.314 633.028 143.988C632.255 144.656 631.144 144.99 629.697 144.99H626.682ZM626.682 143.61H629.715C630.617 143.61 631.308 143.399 631.789 142.978C632.269 142.55 632.51 141.935 632.51 141.132C632.51 140.37 632.269 139.761 631.789 139.304C631.308 138.847 630.649 138.609 629.811 138.592H626.682V143.61ZM640.973 143.628L644.313 137.203H646.229L641.817 145.228V150H640.129V145.228L635.717 137.203H637.651L640.973 143.628ZM663.199 145.939C663.041 147.293 662.54 148.339 661.696 149.077C660.858 149.81 659.742 150.176 658.347 150.176C656.836 150.176 655.623 149.634 654.709 148.55C653.801 147.466 653.346 146.016 653.346 144.199V142.969C653.346 141.779 653.557 140.733 653.979 139.831C654.407 138.929 655.01 138.237 655.79 137.757C656.569 137.271 657.471 137.027 658.497 137.027C659.856 137.027 660.946 137.408 661.766 138.17C662.587 138.926 663.064 139.975 663.199 141.316H661.503C661.356 140.297 661.037 139.559 660.545 139.102C660.058 138.645 659.376 138.416 658.497 138.416C657.419 138.416 656.572 138.814 655.957 139.611C655.347 140.408 655.043 141.542 655.043 143.013V144.252C655.043 145.641 655.333 146.745 655.913 147.565C656.493 148.386 657.304 148.796 658.347 148.796C659.285 148.796 660.003 148.585 660.501 148.163C661.005 147.735 661.339 146.994 661.503 145.939H663.199ZM675.239 137.203V145.904C675.233 147.111 674.853 148.099 674.097 148.866C673.347 149.634 672.327 150.064 671.038 150.158L670.59 150.176C669.189 150.176 668.073 149.798 667.241 149.042C666.409 148.286 665.987 147.246 665.976 145.922V137.203H667.646V145.869C667.646 146.795 667.9 147.516 668.41 148.031C668.92 148.541 669.646 148.796 670.59 148.796C671.545 148.796 672.274 148.541 672.778 148.031C673.288 147.521 673.543 146.804 673.543 145.878V137.203H675.239ZM682.393 144.296C680.946 143.88 679.891 143.37 679.229 142.767C678.573 142.157 678.244 141.407 678.244 140.517C678.244 139.509 678.646 138.677 679.449 138.021C680.257 137.358 681.306 137.027 682.595 137.027C683.474 137.027 684.256 137.197 684.942 137.537C685.633 137.877 686.166 138.346 686.541 138.943C686.922 139.541 687.113 140.194 687.113 140.903H685.416C685.416 140.13 685.17 139.523 684.678 139.084C684.186 138.639 683.491 138.416 682.595 138.416C681.763 138.416 681.113 138.601 680.644 138.97C680.181 139.333 679.949 139.84 679.949 140.49C679.949 141.012 680.169 141.454 680.609 141.817C681.054 142.175 681.807 142.503 682.867 142.802C683.934 143.101 684.766 143.432 685.364 143.795C685.967 144.152 686.412 144.571 686.699 145.052C686.992 145.532 687.139 146.098 687.139 146.748C687.139 147.785 686.735 148.617 685.926 149.244C685.117 149.865 684.036 150.176 682.683 150.176C681.804 150.176 680.984 150.009 680.222 149.675C679.46 149.335 678.871 148.872 678.455 148.286C678.045 147.7 677.84 147.035 677.84 146.291H679.536C679.536 147.064 679.821 147.677 680.389 148.128C680.963 148.573 681.728 148.796 682.683 148.796C683.574 148.796 684.256 148.614 684.731 148.251C685.205 147.888 685.443 147.393 685.443 146.766C685.443 146.139 685.223 145.655 684.783 145.315C684.344 144.97 683.547 144.63 682.393 144.296ZM698.872 138.592H694.758V150H693.08V138.592H688.975V137.203H698.872V138.592ZM711.088 144.015C711.088 145.269 710.877 146.364 710.455 147.302C710.033 148.233 709.435 148.945 708.662 149.438C707.889 149.93 706.986 150.176 705.955 150.176C704.947 150.176 704.054 149.93 703.274 149.438C702.495 148.939 701.889 148.233 701.455 147.319C701.027 146.399 700.807 145.336 700.796 144.129V143.206C700.796 141.976 701.01 140.889 701.437 139.945C701.865 139.002 702.469 138.281 703.248 137.783C704.033 137.279 704.93 137.027 705.937 137.027C706.963 137.027 707.865 137.276 708.644 137.774C709.43 138.267 710.033 138.984 710.455 139.928C710.877 140.865 711.088 141.958 711.088 143.206V144.015ZM709.409 143.188C709.409 141.671 709.104 140.508 708.495 139.699C707.886 138.885 707.033 138.478 705.937 138.478C704.871 138.478 704.03 138.885 703.415 139.699C702.806 140.508 702.492 141.633 702.474 143.074V144.015C702.474 145.485 702.782 146.643 703.397 147.486C704.018 148.324 704.871 148.743 705.955 148.743C707.045 148.743 707.889 148.348 708.486 147.557C709.084 146.76 709.391 145.62 709.409 144.138V143.188ZM716.519 137.203L720.702 147.645L724.886 137.203H727.074V150H725.387V145.017L725.545 139.638L721.344 150H720.052L715.859 139.664L716.026 145.017V150H714.339V137.203H716.519ZM738.007 144.085H732.461V148.62H738.904V150H730.774V137.203H738.816V138.592H732.461V142.705H738.007V144.085ZM746.418 144.823H743.412V150H741.716V137.203H745.952C747.393 137.203 748.501 137.531 749.274 138.188C750.053 138.844 750.443 139.799 750.443 141.053C750.443 141.85 750.226 142.544 749.793 143.136C749.365 143.728 748.767 144.17 748 144.463L751.006 149.895V150H749.195L746.418 144.823ZM743.412 143.443H746.005C746.842 143.443 747.508 143.227 748 142.793C748.498 142.359 748.747 141.779 748.747 141.053C748.747 140.262 748.509 139.655 748.035 139.233C747.566 138.812 746.886 138.598 745.996 138.592H743.412V143.443ZM757.307 144.296C755.859 143.88 754.805 143.37 754.143 142.767C753.486 142.157 753.158 141.407 753.158 140.517C753.158 139.509 753.56 138.677 754.362 138.021C755.171 137.358 756.22 137.027 757.509 137.027C758.388 137.027 759.17 137.197 759.855 137.537C760.547 137.877 761.08 138.346 761.455 138.943C761.836 139.541 762.026 140.194 762.026 140.903H760.33C760.33 140.13 760.084 139.523 759.592 139.084C759.1 138.639 758.405 138.416 757.509 138.416C756.677 138.416 756.026 138.601 755.558 138.97C755.095 139.333 754.863 139.84 754.863 140.49C754.863 141.012 755.083 141.454 755.522 141.817C755.968 142.175 756.721 142.503 757.781 142.802C758.848 143.101 759.68 143.432 760.277 143.795C760.881 144.152 761.326 144.571 761.613 145.052C761.906 145.532 762.053 146.098 762.053 146.748C762.053 147.785 761.648 148.617 760.84 149.244C760.031 149.865 758.95 150.176 757.597 150.176C756.718 150.176 755.897 150.009 755.136 149.675C754.374 149.335 753.785 148.872 753.369 148.286C752.959 147.7 752.754 147.035 752.754 146.291H754.45C754.45 147.064 754.734 147.677 755.303 148.128C755.877 148.573 756.642 148.796 757.597 148.796C758.487 148.796 759.17 148.614 759.645 148.251C760.119 147.888 760.356 147.393 760.356 146.766C760.356 146.139 760.137 145.655 759.697 145.315C759.258 144.97 758.461 144.63 757.307 144.296Z" fill="black"/>
</svg>
