<svg width="257" height="95" viewBox="0 0 257 95" fill="none" xmlns="http://www.w3.org/2000/svg">
<path fill-rule="evenodd" clip-rule="evenodd" d="M257 0H0V81H242.848L256.605 94.2953L256.96 81H257V0Z" fill="#2099EA"/>
<path d="M61.6758 46.6719L65.6133 27.4062H70.0254L64.1191 53H59.8652L54.9961 34.3145L50.0215 53H45.75L39.8438 27.4062H44.2559L48.2285 46.6367L53.1152 27.4062H56.8418L61.6758 46.6719ZM96.1177 53H91.688V41.627H80.2446V53H75.7973V27.4062H80.2446V38.0586H91.688V27.4062H96.1177V53ZM118.554 47.041H108.64L106.565 53H101.942L111.61 27.4062H115.601L125.286 53H120.645L118.554 47.041ZM109.888 43.4551H117.306L113.597 32.8379L109.888 43.4551ZM147.107 30.9922H139.126V53H134.714V30.9922H126.804V27.4062H147.107V30.9922ZM168.125 53H163.696V27.4062H168.125V53ZM187.597 53V27.4062H195.156C197.417 27.4062 199.421 27.9102 201.167 28.918C202.925 29.9258 204.285 31.3555 205.245 33.207C206.206 35.0586 206.687 37.1797 206.687 39.5703V40.8535C206.687 43.2793 206.201 45.4121 205.228 47.252C204.267 49.0918 202.89 50.5098 201.097 51.5059C199.316 52.502 197.271 53 194.962 53H187.597ZM192.044 30.9922V49.4492H194.945C197.277 49.4492 199.064 48.7227 200.306 47.2695C201.56 45.8047 202.199 43.707 202.222 40.9766V39.5527C202.222 36.7754 201.619 34.6543 200.411 33.1895C199.204 31.7246 197.452 30.9922 195.156 30.9922H192.044ZM234.062 40.8711C234.062 43.3789 233.629 45.582 232.762 47.4805C231.894 49.3672 230.652 50.8203 229.035 51.8398C227.43 52.8477 225.578 53.3516 223.48 53.3516C221.406 53.3516 219.555 52.8477 217.926 51.8398C216.308 50.8203 215.055 49.373 214.164 47.498C213.285 45.623 212.84 43.4609 212.828 41.0117V39.5703C212.828 37.0742 213.267 34.8711 214.146 32.9609C215.037 31.0508 216.285 29.5918 217.89 28.584C219.508 27.5645 221.359 27.0547 223.445 27.0547C225.531 27.0547 227.377 27.5586 228.982 28.5664C230.599 29.5625 231.848 31.0039 232.726 32.8906C233.605 34.7656 234.051 36.9512 234.062 39.4473V40.8711ZM229.615 39.5352C229.615 36.6992 229.076 34.5254 227.998 33.0137C226.931 31.502 225.414 30.7461 223.445 30.7461C221.523 30.7461 220.017 31.502 218.928 33.0137C217.849 34.5137 217.299 36.6406 217.275 39.3945V40.8711C217.275 43.6836 217.82 45.8574 218.91 47.3926C220.012 48.9277 221.535 49.6953 223.48 49.6953C225.449 49.6953 226.961 48.9453 228.015 47.4453C229.082 45.9453 229.615 43.7539 229.615 40.8711V39.5352Z" fill="black"/>
</svg>
